<mxfile host="app.diagrams.net" modified="2024-03-09T16:35:16.999Z" agent="Mozilla/5.0 (Macintosh; Intel Mac OS X 10_15_7) AppleWebKit/537.36 (KHTML, like Gecko) Chrome/122.0.0.0 Safari/537.36" etag="DNBSse_756iDlTMRiNYj" version="24.0.3" type="github">
  <diagram name="Page-1" id="Y_8Nm7pky2wLctZNgVBK">
    <mxGraphModel dx="2641" dy="1003" grid="1" gridSize="10" guides="1" tooltips="1" connect="1" arrows="1" fold="1" page="1" pageScale="1" pageWidth="850" pageHeight="1100" math="0" shadow="0">
      <root>
        <mxCell id="0" />
        <mxCell id="1" parent="0" />
        <mxCell id="eSSI8X7Q6GoKr2y-t-dQ-65" value="" style="rounded=1;whiteSpace=wrap;html=1;strokeColor=none;fillColor=#CCE5FF;dashed=1;dashPattern=1 2;" parent="1" vertex="1">
          <mxGeometry x="1090" y="452.5" width="320" height="60" as="geometry" />
        </mxCell>
        <mxCell id="eSSI8X7Q6GoKr2y-t-dQ-66" value="" style="rounded=1;whiteSpace=wrap;html=1;strokeColor=none;fillColor=#CCE5FF;dashed=1;dashPattern=1 2;" parent="1" vertex="1">
          <mxGeometry x="1090" y="690.64" width="320" height="60" as="geometry" />
        </mxCell>
        <mxCell id="eSSI8X7Q6GoKr2y-t-dQ-64" value="" style="rounded=1;whiteSpace=wrap;html=1;strokeColor=none;fillColor=#CCE5FF;dashed=1;dashPattern=1 2;" parent="1" vertex="1">
          <mxGeometry x="1090" y="268" width="320" height="60" as="geometry" />
        </mxCell>
        <mxCell id="eSSI8X7Q6GoKr2y-t-dQ-63" value="" style="rounded=1;whiteSpace=wrap;html=1;strokeColor=none;fillColor=#FFFFCC;dashed=1;dashPattern=1 2;" parent="1" vertex="1">
          <mxGeometry x="240" y="260" width="320" height="60" as="geometry" />
        </mxCell>
        <mxCell id="eSSI8X7Q6GoKr2y-t-dQ-51" style="edgeStyle=none;rounded=0;orthogonalLoop=1;jettySize=auto;html=1;entryX=0.5;entryY=1;entryDx=0;entryDy=0;dashed=1;" parent="1" source="eSSI8X7Q6GoKr2y-t-dQ-45" target="eSSI8X7Q6GoKr2y-t-dQ-46" edge="1">
          <mxGeometry relative="1" as="geometry" />
        </mxCell>
        <mxCell id="eSSI8X7Q6GoKr2y-t-dQ-45" value="" style="rounded=1;whiteSpace=wrap;html=1;" parent="1" vertex="1">
          <mxGeometry x="600" y="292.82" width="160" height="550" as="geometry" />
        </mxCell>
        <mxCell id="eSSI8X7Q6GoKr2y-t-dQ-3" value="" style="shape=image;imageAspect=0;aspect=fixed;verticalLabelPosition=bottom;verticalAlign=top;image=data:image/png,iVBORw0KGgoAAAANSUhEUgAAAScAAAHfCAMAAAAlRe4HAAAAwFBMVEVHcEwgAAAeGRkeGBodGBodGRkeGRoeGRoeGRoeGRkeGRoeGRoeGRodGRoeGRodGBkeGBkeGRkdGRkcGBohGyEcGhodGBodGRkeGRodGRkdGRoqKiocHBwdGBoeGBkdGRofFxgeGRoeGBocHBweGBkdGRoeFxodGBoeGRkcGRsbEhIeFBkeGRoeGRoeGRoeGRkeGRkdGRodGRoeGRoeGBkeGRoZGRkdGRkeGRoeGRkeGRoAAAAeGRodGhoeGRodGRr+ujfbAAAAQHRSTlMAAilUdZKyxdbt+P/x4M26oYBiPA0fXPWucDcFB0vcZxv+bBbkRiSX/C4KE+hPhkGcyY97MqkQ0baLvgGlWKzBkzNXLwAAF/ZJREFUeAHs1YWx40AUBMARw5iZmZmdf2ZXeJ9Zq6p9606ikQjLdlzPD8IoislMlM3lC8VSuYKHJ9Wal6vzXdlGs9XGAzpdr8fP1f3+AEazuoUMv2MYjMYwVbU44ffFjakFA83mC/5QWGvDMMvCgr+QbXZgkKU/5C9l+xYMsSrG/INcC0boZvk3w8Ia4lXz/LtNDcJtIyaiUIFg7d2QCQmXEKsaMDlxE0LtM0zUoQ2JtjET5q8gT3/BxB3XkMalCuEAspyoRnYASc5UJVxDjtqQyhxXkKK7oEJ+GzKU61SqABHGEyrWhwBWnqrFl0d139KrQHflBVNwheZuE6aiBL3NmY5oDJ1dFkzJARqzjkzLcA99jZieexu6+tfefS4mjmxRw15kpEUySTYiiSiCAWMMxsL2/V/VF944oVtVkqowxfTz/5yZ2UZSxb3GFiPxX3bZ5+1htmhMB/t3i9E8wVQbRmDlek38VWqRfWEE6yXMdCxRWvXZxS+kzyVKG939SDzfwe8cHyxKmrgw0dKinH4PYVZz767nw1lK8c5dCGwnlNJ3YZ7UhDKsHsTG75SSgXl6lNFvQUZqTxlVmCdPCZUxJGU9ivktmGblU+x0VPy6e4VpBhSbDBHBmWInmOaDQk4aUQR5iqVhlqZNoTaiOZYplIVZMhS66FhD/oBZdlpWIOcUsZswSl/LJGO1psgUJhlrmmNkKfIAkzxr2iBpWvf1gtroWgN5oIAV3NWkZYN4hj4FWjBIWdt4sEqBHszR9bTNL+r3tJ2QpsAZcbUokIM5phTo6Xuk8zBHnQJHxHZhuModLY1PNO7ilGGOs8bBYIbhHJhjrvFwyYEC7v2sFuwR34wCSxjjwnAbnVPs4/3U6RXxNSkwhjF2Gn9Pwzt67nIax8xphvOD+1lWuSC+DsOV7uhETwHxtRluDXM8MZyl8bfahzk+KTBEbI/i36oxOhT4RFyBdUe3zMb6TsUv7mrDpcRw5UDbKb02DHKiQEP//7MJ3nQ9eAuKjGGQJwqUVpruX/Vhko6m/e2hfV+Xqrs2BaymnrYaIxilQB1bUzObIgsY5UwRf6HjMGPJhVEaFHpxEVH9/i5Up9ZU/uSlHQp9wjA7CnnPiKJZpJDdvMdrG04D8twqxd5hmq5FMWsBWam3O71ZlqMEqwE53S9KKDVhnDRlOD3IWH1TxhwG+qYML+dCqFOmlAUM9Ek5hRnCua8+pXxDvdSsNzpfqqf+xLKscr9SvZxHvVkAddwJ5dibJUJsi5SUUZ+X8lLir5QKucwQigwoa5Jd4je2Vco6paDOsjcvM1w/N+1CAbdMadZ5gX87DgqU9wxVus+XEmWUaj0XidUZxWkzXeIv0qO8zQgqAdSYndeUN9nMkJDbZzR+Mb/PjuqD7EPtxWJEUyjRyXuMxn9baJi86FKFCo0qY/DyHSTyxWuxZ0hu+824qh0kMCzxSl6R2LjmJUoBGSfeeNGv6CKhVNtiMtZTCnGlCrwGv4GEDhUmV1ggrqHFK3hAQgP7p8Mteh61+0ghkeYbVfk6IqY9dVsPkcihTyH9wTJugXr5Ww3PXHzOJ+JZFanVCIlkParlZRHPbH277/DgTPU2AWLpONSmFiAB90Idai5i6dm3mY7gvlOPrxRimTrUIt9FAkHt5voyN0rU4OIiiT312dxQoeYpJPF6k5/hdJ9qeZsASdQ96uRnEM+qSpVKGSRysKmXvUA8qQ3V6S+QyLFP3YpLxNS2qEj+iGQebzqMYPhOFUqDwIhW+23EFYwcJlZtIaGFzWtwZohtlmcy1iAwJuCiigS2J8Znz8catvS1+UQC7mjNeLy3mcaACw0mTSTRHfQZnf920HvIVoM9kkl9nhhNad+CEg2PkfiVy2u7tz1se+2Hy8lnJP4CSXVyFqW9PB319GgWmOz/kZdyfJ5bjOARybnPXyVKKL7OoEyH0vzHXuqX/9rvHmX5aajgbjcVnyGsx1EaKuUpyb+k8TuHL4+SLtfoZ/d+SEGthUc5lQPCNE6U48+ucGvoDNXeZLd2U6rO1+5MrFPLp4z+AWKNCWXYYwPrtKGM7yNkjF8oI2tendwJJeSXkLN8p4RiYFydpoo3u9wqJXSMq1ONYoUl5C0LFNubVifXolD/qDyXfJIyrE5TCtkdRLP1KXQwrE57HTmfDxR6NaxORYpUUoiqW6RIwaw6jSnid7Q8zX7TqDo9a2qAUKXI1qg6nSngLTS1tXg1qk4fFMjruuT7aFSdLF13+NoU6JtUpyEFLBfxNB2G85oG1Wmr72L/hQIHg+pUp0BG//+1CXV6YDh/pS9XJmtQnXYMV0R8E4bbG1SnPMN9Ib4qw9UMqlOB4TYa++68G1SnE8PVNd5cLRhUpz7DZTR+SysG1anMcFONOUUng+o00Tip7zFc0bzn7s/vSeD05/0k5UVjG8DsHX3vvjWOn+YMlzeoTo8aF9M+7mg8vte4mLZmuLNBdcrqy5VJU+DJoDp9UqCt777Ms951xssQ6nT0pQbkNff2dBvZt77HEFb1/LyCEk2f4UpLxLOyGc5fIrbg8PrhUIZXzPWWSK6v68EbUNe0JTXdTRiFXa2vkNCXppauwUlTo/3OfM3o7Pf2UvMN8wbi6Gk5orl6OjEua35AfFtNnd4LGuo/yzlMpNJ2EVPXoUhPS8tnu4toDnmfifUHLuKpUqTfRVTNiep7nZ081SjHrNSrjoYfc8UnyGdvHpXpZwJENn6nkD9FNBmKpSGtebapVKGDiHprDe3uZiUK9SGtN6FqXm2FCJY5j1KKK8gbF6nwWW5VqcO6DWmHImUVlpDVrCgMbggGJWryPoSU1JNNeS8ryBlXKOEEKat36rN+hoRWgZEUh5Ax61Nd/E5nQq1yXYi0S4zI6kEsU6IM5wgJI5uaVWYItfpidN5+iXDNOeXs9bfOlWNNEWI6YSyTtpoPuD2E0KzIa/BH+J3u3mNc31P8RvD8QllzCB3WvJJcCr+0KDKJyuCIf1uNTpRmtyCyLfFqvrr4t1TWZkL24yCNJHkpNYhkbF7RRxP/1PqgEuvv+eugnWkPXnffFqNxWhCo+7yqyhF/l7H4814hMOK1vfytUMcL9Uu+nNX2eXUvTfwf2wlvwRThpjZ/wEcX/5P74PMWvCFcw6FWgn7WixNvgjVEqIXFH7IHEAwc3gTvOfmVfl0GGFZ5I84I5X7z5/gPFm9EwZU4jvWH1UKojMc/SHuLUOkSDTHxfrBN+7JIQ8yX2R9s+z+nBrrW1Tc/lr4z9WiE/FjQ+CGZnPhIggmc/9Oae6Pv12T+kKCS1hjDRfoDCBx8xuZXLg+fndmwie5qtpiO5tU1tfA3Lv7i06ZadgYCwQvj8SrnXhP/FCye8iWqVm7g7xprqmRto59wSR593e292VTp7Yh/GhaozksLIm6R0Xn5RoBQ41eLqlgZ/EJ37lENb+NqSR3w8weILZ8mVKI6TLwXmny3fTlhVN9pyFk+2EzMHgX4nfEXk3sbQkJWa8DI7J0JnRYI0yszmf4UMo6W5qjddokJ+GcX4Zobh/E5r11IyUZ9CBBV+sTYyluIDWs+47F3rZiNmAXKB0S3rDGmyxFSZrEqZedakNVmFKchYtkwDusT0mb7EqMpnYeQV2AEhSNiGvmM7GOIKJqjF8qrDJqIIM0IPpaQlXyf2c6mEFV6U6SM4kNaY3RqpYkEnpKPBmSks1WHYZzqUxpRuWtK64+RyIbyvH030Z3cS9Hnv/nFt2zHRQw9SrNmSCa4XDO0qJvuPW12+epL5VSpfOR351Ev3UVclwR7yQKJtiosF7ekW6KsPZJbOJS1xS3pUVbFhQIDysrhlswpye9AhaBASeUAN6R87T/vwqekA27HjJLWRyiyp6QH3I4BJY2gyrFEOR+4HW+Us15CmQ3lOC5uxoRyslBn7FDOArdiSDlWEwrtKWeAW/H8I2OZNOXUcCseKKcDpSqU0seteKSUItQaUc4RN6JIKa9Qa+ybNdJ07R/6932hlIxZo3ErBcU2GkYjGm0pJQ/VppSyw21oU8oTVFvaRs1cXill+1MfkDJuQ45ShlAuTxl+gJtwoYxSAOXOlNLETchTRgXq1SmlhZtQoIx3qNczaqD5QhlvPzci6eAmnH5sFHOglIZJ07v9z80EpibV6Qz1WkbV6UQZc6i3MGpPuEIZF6jXMOr9VNA3DRaYGjUuqFLGN9T7pJSZSbt3k5+bga+MOoTR/KmZpZfCTdhQSuenZgKWWacL2lAtKFHGyaxDYvOfGj7lcRsWP7Xf+KThD6TRkXKGUCxPKU+GHVepQy23ZNT0DqhSyvsPHf9owayNBH/4I6fTSinciDp/YmP26Gj4GWu1oJxTAIUGxh1kTZUopwd1Un3zbiR8UE7h+rv19Ju4GQ/Xv20SnCingtvRoKRCcO2fE+e4Ha5DSW2ocZxQ0jNuSP7aFzdylOQscUPq1PoYJOjH9YhbMvYTXOfUeqGzjZtSUNbNVUaNsuwjbsqI0l7c6z3lrOK2jG1KqwVIpGFT2h5JDbf1zS5fKPbLVrnfL+Rrm/p0qP+Ll/yowcJiBLUmYltlzlWLv2J9nJ/HWheDEq8wtiYJ2xvKSW33J4+hTuetC7EEbY28LOJKlxmR/+BGL9LOogxrN00lm+MJnAPE0rEYXWGGKIYPZcqbPAwTvckFal3E0HMYR6kOaZ2LzWj8SxoR7JKH+wmkHnzG9LiClEaeMXj5DqSlPUZSyiCa4Tfjm2whtqgyJu/9AFlfjKg2hrygbjEJ/9xFuPHOZ3x+7gg5aZ8RWU8pSFoUmFRxgRBB22Ii8u1AL4zs9BxAQmvuMzknpB/rrMCE5NvLzmxGd/pMQSBd86nG+xi/VneoglOHjD3jKG/S+L1mu+pTmXUPv3B8pCq1ZaLWtQIv2UMKvzD+vDjK00jwT+ki1SmmITZgbNZjtjdz8X+MG/VckRoUD4JU6YScDIRSBSZi9ysf+be3auFkMRn5hppPvo4YCYGFTQN8t/C/BXuq96B0OqyfuOFvakcd5ikIuBUa4dIEgFSNelzEgx2bRig3gGBHXeYQGdEMfs7dUJ8HiLzREH3qNIBAs88/SD8DgbTFP0gnDYGpzx/z0ZvwRpyWEMjypxSPGOd5I3YQ2fBnrFsAMHB4G9oQCOb8CdYC/0O6wptQmkEgdeH1OQ3cWF5+FSLuO6/NmeL/2pZ5CzIQWVZ5Xc4Wf3W88AZMmhBxL9cv099kLP68M4RSOV7PuoN/aRWogn9627Qz08Y0U998FT1GYqch9urxSvoz/ELq1WZC1vx5hb8aZ3YWI3iDhLrPqyiM8WudPhPw3p9d/Fs3U6U0Pw0JU4tXsOvid5o7xuW9LfA7nTxl1SBjdqJugsjBZ4uxnDoIsy1Sjj+DjOWOepU7CDesxtqVcRFOeiw7h5zPEjV6PEIkeLLjFV9gO6EMewU5rQ9qIX9UbnFiJIUVZIwras/tBoMStagOIae79ygvv4Sc5ofiDvWtPNVbtyFvOqGsvAtZ3Q/VPXh6fSYiPsEmsHqknMIS8o4n1TcLulmLCuXTiEJ+/a68QhTDNYUmAaI4nh0qUtgihlmFQnYH0Ux99S3yxucSFfje6rvxnUVUGx0ZGqvXCZPxvxqI65siJxdRdftaOhK47QLjW59bOpMCvIaWTmH2EnGk92vG4Vczrt6Gm1+Io6qtc4M73VmMxv8YjHU3pPAOiGOrM+TH3W5OlGVd2isk9qiruU9B8733YSZ38ikw+RodUtfJEX3WdWW5j8S6nUGRv7XpDaHK0dMVy9x0rtIO5+s63f8aFJjra252MKhObX2RXXUKPBtUpyzDeSt9rfWfDKpTTmOS4YTh9gbV6ZHhvjQ2x6wZVKdvhtto/K2+G1SnF4ara2w2XDCoTkWNCZV1hqsYVKe+xk7AGYY7GVSnicZ2jD2GKxpUp/Kf39Of99MVE54Gf7532sdPc4bL39F4/BHxfdzReHz3Z36nZHncG+uLLHy6p/WnT31d45/vaT1zp2+HYmFQncYUKC11hTX4S4PqhLWuB29AgSJMqlNVV7Z+hQJfRtVpoynLs0eRrFF16mkKNytQpGFUnY6+ljSqDEXsrlF1QoUiRRdRNScU+YBZddroyA/KUShrWJ0aFPKniKbnUWhhWJ1SawpNhoiiZVGoD8PqhDnFTkfIWxUptjGuTltK+O5CVvOFEhbG1SnoSxXqCDmrAiWcYFyd8EoZpyFktIqUMTKwTkObMtZTiD1blOEcDawTapTib5YI18x5lLKHiXWa+ZTT7yFMr0w5dsvIOuGNsqpb/M60wGsn8LmdsCsvtcwKai08SivUm/i346BCaf4MCgxH+RLD+ZXzNqUvrU/Aeau38FezwaPNCGpIrFn/8CllsllAmYXPaCbV3FM908vUn+bVCaOxZ0io8eYwgtNoCUX2vJ4HJJLqFRhVKTeEEs0Jr6XfRQJuvcg4nPkQKnzyWnpIYHpiXM6mqS0ZWoNHxJd+ZxKTegqJzUq8BmuIuLpnnwlVFkiszeR0hrYuTkzOfkghqR31OyMmN2tTiUIaCXVPTE5TYuvwhao4n0go7TA5LQnAnQnV8TYpJPPsUyd7injaDpV6PyKZATXy2ohFQ1BKsYVkXqnPE2LREpQySd/sRG8Defp72K4XSERbV+t5gDjcR+phdZBIcKYOuQBxpL6oS2mBZLIeVfOyN/caEJ8GuH5rXfsT8TxRp1MTyTyXqJI1RTwZn1pVXSSTPlGdl9atzg94RkLdHBXxci7iWRZvdflCQ+v7UkbzNrX+GafArMrkHof6+rNcfQUjwT54gn12gVaJV/GK5JYPNuOzc0vtW6/J2TMokP7yGY9fmyGBDK/lO4AKs7nP6OzazJT9RLahxmxuMxonN/yRZQuHcVhHKDLOFiNt5x+VH/ETKO5G09YxAJbjTnvzYWvcyBfo7CeSEfYLJDenPO97MMTfLbe7EuWVVlAoOLwWfIaxv7MLqDCzKat0nuFXuu0TpW2g2HL7mu97/De///jaWEKRGiU5mxV+J3g+UZIzhgbNQya7v7y/VIr9YuXlvbbPZg5LKDT0KSffQhj3qUQ5G5jogVJKbQhIx46tXZjHXVPGKQ0x9+xRxifM80kZH01IaduU8A3zfFDCmwtJPYcSFjDN0FObJ4Oef5dv8pHqPBnUPQoV7/GxW4/VzxbTMMvKp4i/RTRugUKvMEtbx7tk5lDkBWa5UKS81HEOx1vBKH0tB9C78v+3ZhhrekDaFHmASZ41/d1TfQpUYZINBYqBpmFZKQWDVHX1ZTnaFEjf02vcHyKmr3t6kbu2tol9hgIjmGOm76s09hhuD3NMKdDQ1xv7Eeaoa2y6uWO4E8yRZbiyzv/vO9pCeNfY2tGCOc7a2g0DC4azYY65xm/SjAIujFHTOFldUeAIY1w0rjoeKTCGMWoat0WGd/R72mnsiJSmQBfGyDHcm8aOqn7qfsZPJ41jfeuONjmdlL6xWfGezmDM9C0BFmCOBrUFXrkOw11gjiEFLvr+BBuYI3B05YhjQ4E6DFLRlSKUmlCgA4PsdPXZ2lLAa8IgTxTwW5pinPowSUdTM9e0T4ELTNK1KWAP9bTmHcEo36SGOd7Wu7eTrA86Oku6J4qsAxilQ6HyUUNITQ1mSa0p9Bggkql/hzcS5lQdJtRaU8hpwjBbinl11XkyX8AdPni0e5B1fKGEDIyzoQS/DjnDEyVYXRhn5lGC9xpAwqJMGXsYqEop+RWEBg5l+GkYaEs5k2eEG35RziOMVKCk/Ay/182WKMc7wEg9yvLf0r+r0mBCWe8wU1ChNL/abuJfOjmL8howVIZRONVsZ4n/LdVq78qM4gOmCgqMyCt/vO3280v+ZDMi/wBjLWxeTQ4G2/Na1kcYrDnhlbRhtE9eRyGA2d54DaUZDNcs3sxT9+ebN8cdGFG30xL34OvPy0nKsqA7T+ZOrIp682TuxrBMbZ5wR9IWNdngrnQsarEPcF/SZarnPeDuDE9UzR/gDh0LVMvO4C4tL1Rp0oH59CcFVse4X+ki1fAfUrhnzQtVmDRw73plJuXnmjBf8pgUgUoH5tOeUWQ9pfCf0SswHuv1iP+URp7RrR+O+M/pPPqMpD/q4j9p+NqnLOeyDfDf1Tn3KeY8fjbxXzd7ylv8Pb+yn3ZhIA2CdH1fnfCfnEotu23CaBp009P208NmP59vNtn6c2eMu/L/AjZ10QQdzwEoAAAAAElFTkSuQmCC;" parent="1" vertex="1">
          <mxGeometry x="90" y="320" width="34.27" height="55.64" as="geometry" />
        </mxCell>
        <mxCell id="eSSI8X7Q6GoKr2y-t-dQ-4" value="" style="shape=image;imageAspect=0;aspect=fixed;verticalLabelPosition=bottom;verticalAlign=top;image=data:image/png,iVBORw0KGgoAAAANSUhEUgAAAScAAAHfCAMAAAAlRe4HAAAAwFBMVEVHcEwgAAAeGRkeGBodGBodGRkeGRoeGRoeGRoeGRkeGRoeGRoeGRodGRoeGRodGBkeGBkeGRkdGRkcGBohGyEcGhodGBodGRkeGRodGRkdGRoqKiocHBwdGBoeGBkdGRofFxgeGRoeGBocHBweGBkdGRoeFxodGBoeGRkcGRsbEhIeFBkeGRoeGRoeGRoeGRkeGRkdGRodGRoeGRoeGBkeGRoZGRkdGRkeGRoeGRkeGRoAAAAeGRodGhoeGRodGRr+ujfbAAAAQHRSTlMAAilUdZKyxdbt+P/x4M26oYBiPA0fXPWucDcFB0vcZxv+bBbkRiSX/C4KE+hPhkGcyY97MqkQ0baLvgGlWKzBkzNXLwAAF/ZJREFUeAHs1YWx40AUBMARw5iZmZmdf2ZXeJ9Zq6p9606ikQjLdlzPD8IoislMlM3lC8VSuYKHJ9Wal6vzXdlGs9XGAzpdr8fP1f3+AEazuoUMv2MYjMYwVbU44ffFjakFA83mC/5QWGvDMMvCgr+QbXZgkKU/5C9l+xYMsSrG/INcC0boZvk3w8Ia4lXz/LtNDcJtIyaiUIFg7d2QCQmXEKsaMDlxE0LtM0zUoQ2JtjET5q8gT3/BxB3XkMalCuEAspyoRnYASc5UJVxDjtqQyhxXkKK7oEJ+GzKU61SqABHGEyrWhwBWnqrFl0d139KrQHflBVNwheZuE6aiBL3NmY5oDJ1dFkzJARqzjkzLcA99jZieexu6+tfefS4mjmxRw15kpEUySTYiiSiCAWMMxsL2/V/VF944oVtVkqowxfTz/5yZ2UZSxb3GFiPxX3bZ5+1htmhMB/t3i9E8wVQbRmDlek38VWqRfWEE6yXMdCxRWvXZxS+kzyVKG939SDzfwe8cHyxKmrgw0dKinH4PYVZz767nw1lK8c5dCGwnlNJ3YZ7UhDKsHsTG75SSgXl6lNFvQUZqTxlVmCdPCZUxJGU9ivktmGblU+x0VPy6e4VpBhSbDBHBmWInmOaDQk4aUQR5iqVhlqZNoTaiOZYplIVZMhS66FhD/oBZdlpWIOcUsZswSl/LJGO1psgUJhlrmmNkKfIAkzxr2iBpWvf1gtroWgN5oIAV3NWkZYN4hj4FWjBIWdt4sEqBHszR9bTNL+r3tJ2QpsAZcbUokIM5phTo6Xuk8zBHnQJHxHZhuModLY1PNO7ilGGOs8bBYIbhHJhjrvFwyYEC7v2sFuwR34wCSxjjwnAbnVPs4/3U6RXxNSkwhjF2Gn9Pwzt67nIax8xphvOD+1lWuSC+DsOV7uhETwHxtRluDXM8MZyl8bfahzk+KTBEbI/i36oxOhT4RFyBdUe3zMb6TsUv7mrDpcRw5UDbKb02DHKiQEP//7MJ3nQ9eAuKjGGQJwqUVpruX/Vhko6m/e2hfV+Xqrs2BaymnrYaIxilQB1bUzObIgsY5UwRf6HjMGPJhVEaFHpxEVH9/i5Up9ZU/uSlHQp9wjA7CnnPiKJZpJDdvMdrG04D8twqxd5hmq5FMWsBWam3O71ZlqMEqwE53S9KKDVhnDRlOD3IWH1TxhwG+qYML+dCqFOmlAUM9Ek5hRnCua8+pXxDvdSsNzpfqqf+xLKscr9SvZxHvVkAddwJ5dibJUJsi5SUUZ+X8lLir5QKucwQigwoa5Jd4je2Vco6paDOsjcvM1w/N+1CAbdMadZ5gX87DgqU9wxVus+XEmWUaj0XidUZxWkzXeIv0qO8zQgqAdSYndeUN9nMkJDbZzR+Mb/PjuqD7EPtxWJEUyjRyXuMxn9baJi86FKFCo0qY/DyHSTyxWuxZ0hu+824qh0kMCzxSl6R2LjmJUoBGSfeeNGv6CKhVNtiMtZTCnGlCrwGv4GEDhUmV1ggrqHFK3hAQgP7p8Mteh61+0ghkeYbVfk6IqY9dVsPkcihTyH9wTJugXr5Ww3PXHzOJ+JZFanVCIlkParlZRHPbH277/DgTPU2AWLpONSmFiAB90Idai5i6dm3mY7gvlOPrxRimTrUIt9FAkHt5voyN0rU4OIiiT312dxQoeYpJPF6k5/hdJ9qeZsASdQ96uRnEM+qSpVKGSRysKmXvUA8qQ3V6S+QyLFP3YpLxNS2qEj+iGQebzqMYPhOFUqDwIhW+23EFYwcJlZtIaGFzWtwZohtlmcy1iAwJuCiigS2J8Znz8catvS1+UQC7mjNeLy3mcaACw0mTSTRHfQZnf920HvIVoM9kkl9nhhNad+CEg2PkfiVy2u7tz1se+2Hy8lnJP4CSXVyFqW9PB319GgWmOz/kZdyfJ5bjOARybnPXyVKKL7OoEyH0vzHXuqX/9rvHmX5aajgbjcVnyGsx1EaKuUpyb+k8TuHL4+SLtfoZ/d+SEGthUc5lQPCNE6U48+ucGvoDNXeZLd2U6rO1+5MrFPLp4z+AWKNCWXYYwPrtKGM7yNkjF8oI2tendwJJeSXkLN8p4RiYFydpoo3u9wqJXSMq1ONYoUl5C0LFNubVifXolD/qDyXfJIyrE5TCtkdRLP1KXQwrE57HTmfDxR6NaxORYpUUoiqW6RIwaw6jSnid7Q8zX7TqDo9a2qAUKXI1qg6nSngLTS1tXg1qk4fFMjruuT7aFSdLF13+NoU6JtUpyEFLBfxNB2G85oG1Wmr72L/hQIHg+pUp0BG//+1CXV6YDh/pS9XJmtQnXYMV0R8E4bbG1SnPMN9Ib4qw9UMqlOB4TYa++68G1SnE8PVNd5cLRhUpz7DZTR+SysG1anMcFONOUUng+o00Tip7zFc0bzn7s/vSeD05/0k5UVjG8DsHX3vvjWOn+YMlzeoTo8aF9M+7mg8vte4mLZmuLNBdcrqy5VJU+DJoDp9UqCt777Ms951xssQ6nT0pQbkNff2dBvZt77HEFb1/LyCEk2f4UpLxLOyGc5fIrbg8PrhUIZXzPWWSK6v68EbUNe0JTXdTRiFXa2vkNCXppauwUlTo/3OfM3o7Pf2UvMN8wbi6Gk5orl6OjEua35AfFtNnd4LGuo/yzlMpNJ2EVPXoUhPS8tnu4toDnmfifUHLuKpUqTfRVTNiep7nZ081SjHrNSrjoYfc8UnyGdvHpXpZwJENn6nkD9FNBmKpSGtebapVKGDiHprDe3uZiUK9SGtN6FqXm2FCJY5j1KKK8gbF6nwWW5VqcO6DWmHImUVlpDVrCgMbggGJWryPoSU1JNNeS8ryBlXKOEEKat36rN+hoRWgZEUh5Ax61Nd/E5nQq1yXYi0S4zI6kEsU6IM5wgJI5uaVWYItfpidN5+iXDNOeXs9bfOlWNNEWI6YSyTtpoPuD2E0KzIa/BH+J3u3mNc31P8RvD8QllzCB3WvJJcCr+0KDKJyuCIf1uNTpRmtyCyLfFqvrr4t1TWZkL24yCNJHkpNYhkbF7RRxP/1PqgEuvv+eugnWkPXnffFqNxWhCo+7yqyhF/l7H4814hMOK1vfytUMcL9Uu+nNX2eXUvTfwf2wlvwRThpjZ/wEcX/5P74PMWvCFcw6FWgn7WixNvgjVEqIXFH7IHEAwc3gTvOfmVfl0GGFZ5I84I5X7z5/gPFm9EwZU4jvWH1UKojMc/SHuLUOkSDTHxfrBN+7JIQ8yX2R9s+z+nBrrW1Tc/lr4z9WiE/FjQ+CGZnPhIggmc/9Oae6Pv12T+kKCS1hjDRfoDCBx8xuZXLg+fndmwie5qtpiO5tU1tfA3Lv7i06ZadgYCwQvj8SrnXhP/FCye8iWqVm7g7xprqmRto59wSR593e292VTp7Yh/GhaozksLIm6R0Xn5RoBQ41eLqlgZ/EJ37lENb+NqSR3w8weILZ8mVKI6TLwXmny3fTlhVN9pyFk+2EzMHgX4nfEXk3sbQkJWa8DI7J0JnRYI0yszmf4UMo6W5qjddokJ+GcX4Zobh/E5r11IyUZ9CBBV+sTYyluIDWs+47F3rZiNmAXKB0S3rDGmyxFSZrEqZedakNVmFKchYtkwDusT0mb7EqMpnYeQV2AEhSNiGvmM7GOIKJqjF8qrDJqIIM0IPpaQlXyf2c6mEFV6U6SM4kNaY3RqpYkEnpKPBmSks1WHYZzqUxpRuWtK64+RyIbyvH030Z3cS9Hnv/nFt2zHRQw9SrNmSCa4XDO0qJvuPW12+epL5VSpfOR351Ev3UVclwR7yQKJtiosF7ekW6KsPZJbOJS1xS3pUVbFhQIDysrhlswpye9AhaBASeUAN6R87T/vwqekA27HjJLWRyiyp6QH3I4BJY2gyrFEOR+4HW+Us15CmQ3lOC5uxoRyslBn7FDOArdiSDlWEwrtKWeAW/H8I2OZNOXUcCseKKcDpSqU0seteKSUItQaUc4RN6JIKa9Qa+ybNdJ07R/6932hlIxZo3ErBcU2GkYjGm0pJQ/VppSyw21oU8oTVFvaRs1cXill+1MfkDJuQ45ShlAuTxl+gJtwoYxSAOXOlNLETchTRgXq1SmlhZtQoIx3qNczaqD5QhlvPzci6eAmnH5sFHOglIZJ07v9z80EpibV6Qz1WkbV6UQZc6i3MGpPuEIZF6jXMOr9VNA3DRaYGjUuqFLGN9T7pJSZSbt3k5+bga+MOoTR/KmZpZfCTdhQSuenZgKWWacL2lAtKFHGyaxDYvOfGj7lcRsWP7Xf+KThD6TRkXKGUCxPKU+GHVepQy23ZNT0DqhSyvsPHf9owayNBH/4I6fTSinciDp/YmP26Gj4GWu1oJxTAIUGxh1kTZUopwd1Un3zbiR8UE7h+rv19Ju4GQ/Xv20SnCingtvRoKRCcO2fE+e4Ha5DSW2ocZxQ0jNuSP7aFzdylOQscUPq1PoYJOjH9YhbMvYTXOfUeqGzjZtSUNbNVUaNsuwjbsqI0l7c6z3lrOK2jG1KqwVIpGFT2h5JDbf1zS5fKPbLVrnfL+Rrm/p0qP+Ll/yowcJiBLUmYltlzlWLv2J9nJ/HWheDEq8wtiYJ2xvKSW33J4+hTuetC7EEbY28LOJKlxmR/+BGL9LOogxrN00lm+MJnAPE0rEYXWGGKIYPZcqbPAwTvckFal3E0HMYR6kOaZ2LzWj8SxoR7JKH+wmkHnzG9LiClEaeMXj5DqSlPUZSyiCa4Tfjm2whtqgyJu/9AFlfjKg2hrygbjEJ/9xFuPHOZ3x+7gg5aZ8RWU8pSFoUmFRxgRBB22Ii8u1AL4zs9BxAQmvuMzknpB/rrMCE5NvLzmxGd/pMQSBd86nG+xi/VneoglOHjD3jKG/S+L1mu+pTmXUPv3B8pCq1ZaLWtQIv2UMKvzD+vDjK00jwT+ki1SmmITZgbNZjtjdz8X+MG/VckRoUD4JU6YScDIRSBSZi9ysf+be3auFkMRn5hppPvo4YCYGFTQN8t/C/BXuq96B0OqyfuOFvakcd5ikIuBUa4dIEgFSNelzEgx2bRig3gGBHXeYQGdEMfs7dUJ8HiLzREH3qNIBAs88/SD8DgbTFP0gnDYGpzx/z0ZvwRpyWEMjypxSPGOd5I3YQ2fBnrFsAMHB4G9oQCOb8CdYC/0O6wptQmkEgdeH1OQ3cWF5+FSLuO6/NmeL/2pZ5CzIQWVZ5Xc4Wf3W88AZMmhBxL9cv099kLP68M4RSOV7PuoN/aRWogn9627Qz08Y0U998FT1GYqch9urxSvoz/ELq1WZC1vx5hb8aZ3YWI3iDhLrPqyiM8WudPhPw3p9d/Fs3U6U0Pw0JU4tXsOvid5o7xuW9LfA7nTxl1SBjdqJugsjBZ4uxnDoIsy1Sjj+DjOWOepU7CDesxtqVcRFOeiw7h5zPEjV6PEIkeLLjFV9gO6EMewU5rQ9qIX9UbnFiJIUVZIwras/tBoMStagOIae79ygvv4Sc5ofiDvWtPNVbtyFvOqGsvAtZ3Q/VPXh6fSYiPsEmsHqknMIS8o4n1TcLulmLCuXTiEJ+/a68QhTDNYUmAaI4nh0qUtgihlmFQnYH0Ux99S3yxucSFfje6rvxnUVUGx0ZGqvXCZPxvxqI65siJxdRdftaOhK47QLjW59bOpMCvIaWTmH2EnGk92vG4Vczrt6Gm1+Io6qtc4M73VmMxv8YjHU3pPAOiGOrM+TH3W5OlGVd2isk9qiruU9B8733YSZ38ikw+RodUtfJEX3WdWW5j8S6nUGRv7XpDaHK0dMVy9x0rtIO5+s63f8aFJjra252MKhObX2RXXUKPBtUpyzDeSt9rfWfDKpTTmOS4YTh9gbV6ZHhvjQ2x6wZVKdvhtto/K2+G1SnF4ara2w2XDCoTkWNCZV1hqsYVKe+xk7AGYY7GVSnicZ2jD2GKxpUp/Kf39Of99MVE54Gf7532sdPc4bL39F4/BHxfdzReHz3Z36nZHncG+uLLHy6p/WnT31d45/vaT1zp2+HYmFQncYUKC11hTX4S4PqhLWuB29AgSJMqlNVV7Z+hQJfRtVpoynLs0eRrFF16mkKNytQpGFUnY6+ljSqDEXsrlF1QoUiRRdRNScU+YBZddroyA/KUShrWJ0aFPKniKbnUWhhWJ1SawpNhoiiZVGoD8PqhDnFTkfIWxUptjGuTltK+O5CVvOFEhbG1SnoSxXqCDmrAiWcYFyd8EoZpyFktIqUMTKwTkObMtZTiD1blOEcDawTapTib5YI18x5lLKHiXWa+ZTT7yFMr0w5dsvIOuGNsqpb/M60wGsn8LmdsCsvtcwKai08SivUm/i346BCaf4MCgxH+RLD+ZXzNqUvrU/Aeau38FezwaPNCGpIrFn/8CllsllAmYXPaCbV3FM908vUn+bVCaOxZ0io8eYwgtNoCUX2vJ4HJJLqFRhVKTeEEs0Jr6XfRQJuvcg4nPkQKnzyWnpIYHpiXM6mqS0ZWoNHxJd+ZxKTegqJzUq8BmuIuLpnnwlVFkiszeR0hrYuTkzOfkghqR31OyMmN2tTiUIaCXVPTE5TYuvwhao4n0go7TA5LQnAnQnV8TYpJPPsUyd7injaDpV6PyKZATXy2ohFQ1BKsYVkXqnPE2LREpQySd/sRG8Defp72K4XSERbV+t5gDjcR+phdZBIcKYOuQBxpL6oS2mBZLIeVfOyN/caEJ8GuH5rXfsT8TxRp1MTyTyXqJI1RTwZn1pVXSSTPlGdl9atzg94RkLdHBXxci7iWRZvdflCQ+v7UkbzNrX+GafArMrkHof6+rNcfQUjwT54gn12gVaJV/GK5JYPNuOzc0vtW6/J2TMokP7yGY9fmyGBDK/lO4AKs7nP6OzazJT9RLahxmxuMxonN/yRZQuHcVhHKDLOFiNt5x+VH/ETKO5G09YxAJbjTnvzYWvcyBfo7CeSEfYLJDenPO97MMTfLbe7EuWVVlAoOLwWfIaxv7MLqDCzKat0nuFXuu0TpW2g2HL7mu97/De///jaWEKRGiU5mxV+J3g+UZIzhgbNQya7v7y/VIr9YuXlvbbPZg5LKDT0KSffQhj3qUQ5G5jogVJKbQhIx46tXZjHXVPGKQ0x9+xRxifM80kZH01IaduU8A3zfFDCmwtJPYcSFjDN0FObJ4Oef5dv8pHqPBnUPQoV7/GxW4/VzxbTMMvKp4i/RTRugUKvMEtbx7tk5lDkBWa5UKS81HEOx1vBKH0tB9C78v+3ZhhrekDaFHmASZ41/d1TfQpUYZINBYqBpmFZKQWDVHX1ZTnaFEjf02vcHyKmr3t6kbu2tol9hgIjmGOm76s09hhuD3NMKdDQ1xv7Eeaoa2y6uWO4E8yRZbiyzv/vO9pCeNfY2tGCOc7a2g0DC4azYY65xm/SjAIujFHTOFldUeAIY1w0rjoeKTCGMWoat0WGd/R72mnsiJSmQBfGyDHcm8aOqn7qfsZPJ41jfeuONjmdlL6xWfGezmDM9C0BFmCOBrUFXrkOw11gjiEFLvr+BBuYI3B05YhjQ4E6DFLRlSKUmlCgA4PsdPXZ2lLAa8IgTxTwW5pinPowSUdTM9e0T4ELTNK1KWAP9bTmHcEo36SGOd7Wu7eTrA86Oku6J4qsAxilQ6HyUUNITQ1mSa0p9Bggkql/hzcS5lQdJtRaU8hpwjBbinl11XkyX8AdPni0e5B1fKGEDIyzoQS/DjnDEyVYXRhn5lGC9xpAwqJMGXsYqEop+RWEBg5l+GkYaEs5k2eEG35RziOMVKCk/Ay/182WKMc7wEg9yvLf0r+r0mBCWe8wU1ChNL/abuJfOjmL8howVIZRONVsZ4n/LdVq78qM4gOmCgqMyCt/vO3280v+ZDMi/wBjLWxeTQ4G2/Na1kcYrDnhlbRhtE9eRyGA2d54DaUZDNcs3sxT9+ebN8cdGFG30xL34OvPy0nKsqA7T+ZOrIp682TuxrBMbZ5wR9IWNdngrnQsarEPcF/SZarnPeDuDE9UzR/gDh0LVMvO4C4tL1Rp0oH59CcFVse4X+ki1fAfUrhnzQtVmDRw73plJuXnmjBf8pgUgUoH5tOeUWQ9pfCf0SswHuv1iP+URp7RrR+O+M/pPPqMpD/q4j9p+NqnLOeyDfDf1Tn3KeY8fjbxXzd7ylv8Pb+yn3ZhIA2CdH1fnfCfnEotu23CaBp009P208NmP59vNtn6c2eMu/L/AjZ10QQdzwEoAAAAAElFTkSuQmCC;" parent="1" vertex="1">
          <mxGeometry x="90" y="430" width="34.27" height="55.64" as="geometry" />
        </mxCell>
        <mxCell id="eSSI8X7Q6GoKr2y-t-dQ-5" value="" style="shape=image;imageAspect=0;aspect=fixed;verticalLabelPosition=bottom;verticalAlign=top;image=data:image/png,iVBORw0KGgoAAAANSUhEUgAAAScAAAHfCAMAAAAlRe4HAAAAwFBMVEVHcEwgAAAeGRkeGBodGBodGRkeGRoeGRoeGRoeGRkeGRoeGRoeGRodGRoeGRodGBkeGBkeGRkdGRkcGBohGyEcGhodGBodGRkeGRodGRkdGRoqKiocHBwdGBoeGBkdGRofFxgeGRoeGBocHBweGBkdGRoeFxodGBoeGRkcGRsbEhIeFBkeGRoeGRoeGRoeGRkeGRkdGRodGRoeGRoeGBkeGRoZGRkdGRkeGRoeGRkeGRoAAAAeGRodGhoeGRodGRr+ujfbAAAAQHRSTlMAAilUdZKyxdbt+P/x4M26oYBiPA0fXPWucDcFB0vcZxv+bBbkRiSX/C4KE+hPhkGcyY97MqkQ0baLvgGlWKzBkzNXLwAAF/ZJREFUeAHs1YWx40AUBMARw5iZmZmdf2ZXeJ9Zq6p9606ikQjLdlzPD8IoislMlM3lC8VSuYKHJ9Wal6vzXdlGs9XGAzpdr8fP1f3+AEazuoUMv2MYjMYwVbU44ffFjakFA83mC/5QWGvDMMvCgr+QbXZgkKU/5C9l+xYMsSrG/INcC0boZvk3w8Ia4lXz/LtNDcJtIyaiUIFg7d2QCQmXEKsaMDlxE0LtM0zUoQ2JtjET5q8gT3/BxB3XkMalCuEAspyoRnYASc5UJVxDjtqQyhxXkKK7oEJ+GzKU61SqABHGEyrWhwBWnqrFl0d139KrQHflBVNwheZuE6aiBL3NmY5oDJ1dFkzJARqzjkzLcA99jZieexu6+tfefS4mjmxRw15kpEUySTYiiSiCAWMMxsL2/V/VF944oVtVkqowxfTz/5yZ2UZSxb3GFiPxX3bZ5+1htmhMB/t3i9E8wVQbRmDlek38VWqRfWEE6yXMdCxRWvXZxS+kzyVKG939SDzfwe8cHyxKmrgw0dKinH4PYVZz767nw1lK8c5dCGwnlNJ3YZ7UhDKsHsTG75SSgXl6lNFvQUZqTxlVmCdPCZUxJGU9ivktmGblU+x0VPy6e4VpBhSbDBHBmWInmOaDQk4aUQR5iqVhlqZNoTaiOZYplIVZMhS66FhD/oBZdlpWIOcUsZswSl/LJGO1psgUJhlrmmNkKfIAkzxr2iBpWvf1gtroWgN5oIAV3NWkZYN4hj4FWjBIWdt4sEqBHszR9bTNL+r3tJ2QpsAZcbUokIM5phTo6Xuk8zBHnQJHxHZhuModLY1PNO7ilGGOs8bBYIbhHJhjrvFwyYEC7v2sFuwR34wCSxjjwnAbnVPs4/3U6RXxNSkwhjF2Gn9Pwzt67nIax8xphvOD+1lWuSC+DsOV7uhETwHxtRluDXM8MZyl8bfahzk+KTBEbI/i36oxOhT4RFyBdUe3zMb6TsUv7mrDpcRw5UDbKb02DHKiQEP//7MJ3nQ9eAuKjGGQJwqUVpruX/Vhko6m/e2hfV+Xqrs2BaymnrYaIxilQB1bUzObIgsY5UwRf6HjMGPJhVEaFHpxEVH9/i5Up9ZU/uSlHQp9wjA7CnnPiKJZpJDdvMdrG04D8twqxd5hmq5FMWsBWam3O71ZlqMEqwE53S9KKDVhnDRlOD3IWH1TxhwG+qYML+dCqFOmlAUM9Ek5hRnCua8+pXxDvdSsNzpfqqf+xLKscr9SvZxHvVkAddwJ5dibJUJsi5SUUZ+X8lLir5QKucwQigwoa5Jd4je2Vco6paDOsjcvM1w/N+1CAbdMadZ5gX87DgqU9wxVus+XEmWUaj0XidUZxWkzXeIv0qO8zQgqAdSYndeUN9nMkJDbZzR+Mb/PjuqD7EPtxWJEUyjRyXuMxn9baJi86FKFCo0qY/DyHSTyxWuxZ0hu+824qh0kMCzxSl6R2LjmJUoBGSfeeNGv6CKhVNtiMtZTCnGlCrwGv4GEDhUmV1ggrqHFK3hAQgP7p8Mteh61+0ghkeYbVfk6IqY9dVsPkcihTyH9wTJugXr5Ww3PXHzOJ+JZFanVCIlkParlZRHPbH277/DgTPU2AWLpONSmFiAB90Idai5i6dm3mY7gvlOPrxRimTrUIt9FAkHt5voyN0rU4OIiiT312dxQoeYpJPF6k5/hdJ9qeZsASdQ96uRnEM+qSpVKGSRysKmXvUA8qQ3V6S+QyLFP3YpLxNS2qEj+iGQebzqMYPhOFUqDwIhW+23EFYwcJlZtIaGFzWtwZohtlmcy1iAwJuCiigS2J8Znz8catvS1+UQC7mjNeLy3mcaACw0mTSTRHfQZnf920HvIVoM9kkl9nhhNad+CEg2PkfiVy2u7tz1se+2Hy8lnJP4CSXVyFqW9PB319GgWmOz/kZdyfJ5bjOARybnPXyVKKL7OoEyH0vzHXuqX/9rvHmX5aajgbjcVnyGsx1EaKuUpyb+k8TuHL4+SLtfoZ/d+SEGthUc5lQPCNE6U48+ucGvoDNXeZLd2U6rO1+5MrFPLp4z+AWKNCWXYYwPrtKGM7yNkjF8oI2tendwJJeSXkLN8p4RiYFydpoo3u9wqJXSMq1ONYoUl5C0LFNubVifXolD/qDyXfJIyrE5TCtkdRLP1KXQwrE57HTmfDxR6NaxORYpUUoiqW6RIwaw6jSnid7Q8zX7TqDo9a2qAUKXI1qg6nSngLTS1tXg1qk4fFMjruuT7aFSdLF13+NoU6JtUpyEFLBfxNB2G85oG1Wmr72L/hQIHg+pUp0BG//+1CXV6YDh/pS9XJmtQnXYMV0R8E4bbG1SnPMN9Ib4qw9UMqlOB4TYa++68G1SnE8PVNd5cLRhUpz7DZTR+SysG1anMcFONOUUng+o00Tip7zFc0bzn7s/vSeD05/0k5UVjG8DsHX3vvjWOn+YMlzeoTo8aF9M+7mg8vte4mLZmuLNBdcrqy5VJU+DJoDp9UqCt777Ms951xssQ6nT0pQbkNff2dBvZt77HEFb1/LyCEk2f4UpLxLOyGc5fIrbg8PrhUIZXzPWWSK6v68EbUNe0JTXdTRiFXa2vkNCXppauwUlTo/3OfM3o7Pf2UvMN8wbi6Gk5orl6OjEua35AfFtNnd4LGuo/yzlMpNJ2EVPXoUhPS8tnu4toDnmfifUHLuKpUqTfRVTNiep7nZ081SjHrNSrjoYfc8UnyGdvHpXpZwJENn6nkD9FNBmKpSGtebapVKGDiHprDe3uZiUK9SGtN6FqXm2FCJY5j1KKK8gbF6nwWW5VqcO6DWmHImUVlpDVrCgMbggGJWryPoSU1JNNeS8ryBlXKOEEKat36rN+hoRWgZEUh5Ax61Nd/E5nQq1yXYi0S4zI6kEsU6IM5wgJI5uaVWYItfpidN5+iXDNOeXs9bfOlWNNEWI6YSyTtpoPuD2E0KzIa/BH+J3u3mNc31P8RvD8QllzCB3WvJJcCr+0KDKJyuCIf1uNTpRmtyCyLfFqvrr4t1TWZkL24yCNJHkpNYhkbF7RRxP/1PqgEuvv+eugnWkPXnffFqNxWhCo+7yqyhF/l7H4814hMOK1vfytUMcL9Uu+nNX2eXUvTfwf2wlvwRThpjZ/wEcX/5P74PMWvCFcw6FWgn7WixNvgjVEqIXFH7IHEAwc3gTvOfmVfl0GGFZ5I84I5X7z5/gPFm9EwZU4jvWH1UKojMc/SHuLUOkSDTHxfrBN+7JIQ8yX2R9s+z+nBrrW1Tc/lr4z9WiE/FjQ+CGZnPhIggmc/9Oae6Pv12T+kKCS1hjDRfoDCBx8xuZXLg+fndmwie5qtpiO5tU1tfA3Lv7i06ZadgYCwQvj8SrnXhP/FCye8iWqVm7g7xprqmRto59wSR593e292VTp7Yh/GhaozksLIm6R0Xn5RoBQ41eLqlgZ/EJ37lENb+NqSR3w8weILZ8mVKI6TLwXmny3fTlhVN9pyFk+2EzMHgX4nfEXk3sbQkJWa8DI7J0JnRYI0yszmf4UMo6W5qjddokJ+GcX4Zobh/E5r11IyUZ9CBBV+sTYyluIDWs+47F3rZiNmAXKB0S3rDGmyxFSZrEqZedakNVmFKchYtkwDusT0mb7EqMpnYeQV2AEhSNiGvmM7GOIKJqjF8qrDJqIIM0IPpaQlXyf2c6mEFV6U6SM4kNaY3RqpYkEnpKPBmSks1WHYZzqUxpRuWtK64+RyIbyvH030Z3cS9Hnv/nFt2zHRQw9SrNmSCa4XDO0qJvuPW12+epL5VSpfOR351Ev3UVclwR7yQKJtiosF7ekW6KsPZJbOJS1xS3pUVbFhQIDysrhlswpye9AhaBASeUAN6R87T/vwqekA27HjJLWRyiyp6QH3I4BJY2gyrFEOR+4HW+Us15CmQ3lOC5uxoRyslBn7FDOArdiSDlWEwrtKWeAW/H8I2OZNOXUcCseKKcDpSqU0seteKSUItQaUc4RN6JIKa9Qa+ybNdJ07R/6932hlIxZo3ErBcU2GkYjGm0pJQ/VppSyw21oU8oTVFvaRs1cXill+1MfkDJuQ45ShlAuTxl+gJtwoYxSAOXOlNLETchTRgXq1SmlhZtQoIx3qNczaqD5QhlvPzci6eAmnH5sFHOglIZJ07v9z80EpibV6Qz1WkbV6UQZc6i3MGpPuEIZF6jXMOr9VNA3DRaYGjUuqFLGN9T7pJSZSbt3k5+bga+MOoTR/KmZpZfCTdhQSuenZgKWWacL2lAtKFHGyaxDYvOfGj7lcRsWP7Xf+KThD6TRkXKGUCxPKU+GHVepQy23ZNT0DqhSyvsPHf9owayNBH/4I6fTSinciDp/YmP26Gj4GWu1oJxTAIUGxh1kTZUopwd1Un3zbiR8UE7h+rv19Ju4GQ/Xv20SnCingtvRoKRCcO2fE+e4Ha5DSW2ocZxQ0jNuSP7aFzdylOQscUPq1PoYJOjH9YhbMvYTXOfUeqGzjZtSUNbNVUaNsuwjbsqI0l7c6z3lrOK2jG1KqwVIpGFT2h5JDbf1zS5fKPbLVrnfL+Rrm/p0qP+Ll/yowcJiBLUmYltlzlWLv2J9nJ/HWheDEq8wtiYJ2xvKSW33J4+hTuetC7EEbY28LOJKlxmR/+BGL9LOogxrN00lm+MJnAPE0rEYXWGGKIYPZcqbPAwTvckFal3E0HMYR6kOaZ2LzWj8SxoR7JKH+wmkHnzG9LiClEaeMXj5DqSlPUZSyiCa4Tfjm2whtqgyJu/9AFlfjKg2hrygbjEJ/9xFuPHOZ3x+7gg5aZ8RWU8pSFoUmFRxgRBB22Ii8u1AL4zs9BxAQmvuMzknpB/rrMCE5NvLzmxGd/pMQSBd86nG+xi/VneoglOHjD3jKG/S+L1mu+pTmXUPv3B8pCq1ZaLWtQIv2UMKvzD+vDjK00jwT+ki1SmmITZgbNZjtjdz8X+MG/VckRoUD4JU6YScDIRSBSZi9ysf+be3auFkMRn5hppPvo4YCYGFTQN8t/C/BXuq96B0OqyfuOFvakcd5ikIuBUa4dIEgFSNelzEgx2bRig3gGBHXeYQGdEMfs7dUJ8HiLzREH3qNIBAs88/SD8DgbTFP0gnDYGpzx/z0ZvwRpyWEMjypxSPGOd5I3YQ2fBnrFsAMHB4G9oQCOb8CdYC/0O6wptQmkEgdeH1OQ3cWF5+FSLuO6/NmeL/2pZ5CzIQWVZ5Xc4Wf3W88AZMmhBxL9cv099kLP68M4RSOV7PuoN/aRWogn9627Qz08Y0U998FT1GYqch9urxSvoz/ELq1WZC1vx5hb8aZ3YWI3iDhLrPqyiM8WudPhPw3p9d/Fs3U6U0Pw0JU4tXsOvid5o7xuW9LfA7nTxl1SBjdqJugsjBZ4uxnDoIsy1Sjj+DjOWOepU7CDesxtqVcRFOeiw7h5zPEjV6PEIkeLLjFV9gO6EMewU5rQ9qIX9UbnFiJIUVZIwras/tBoMStagOIae79ygvv4Sc5ofiDvWtPNVbtyFvOqGsvAtZ3Q/VPXh6fSYiPsEmsHqknMIS8o4n1TcLulmLCuXTiEJ+/a68QhTDNYUmAaI4nh0qUtgihlmFQnYH0Ux99S3yxucSFfje6rvxnUVUGx0ZGqvXCZPxvxqI65siJxdRdftaOhK47QLjW59bOpMCvIaWTmH2EnGk92vG4Vczrt6Gm1+Io6qtc4M73VmMxv8YjHU3pPAOiGOrM+TH3W5OlGVd2isk9qiruU9B8733YSZ38ikw+RodUtfJEX3WdWW5j8S6nUGRv7XpDaHK0dMVy9x0rtIO5+s63f8aFJjra252MKhObX2RXXUKPBtUpyzDeSt9rfWfDKpTTmOS4YTh9gbV6ZHhvjQ2x6wZVKdvhtto/K2+G1SnF4ara2w2XDCoTkWNCZV1hqsYVKe+xk7AGYY7GVSnicZ2jD2GKxpUp/Kf39Of99MVE54Gf7532sdPc4bL39F4/BHxfdzReHz3Z36nZHncG+uLLHy6p/WnT31d45/vaT1zp2+HYmFQncYUKC11hTX4S4PqhLWuB29AgSJMqlNVV7Z+hQJfRtVpoynLs0eRrFF16mkKNytQpGFUnY6+ljSqDEXsrlF1QoUiRRdRNScU+YBZddroyA/KUShrWJ0aFPKniKbnUWhhWJ1SawpNhoiiZVGoD8PqhDnFTkfIWxUptjGuTltK+O5CVvOFEhbG1SnoSxXqCDmrAiWcYFyd8EoZpyFktIqUMTKwTkObMtZTiD1blOEcDawTapTib5YI18x5lLKHiXWa+ZTT7yFMr0w5dsvIOuGNsqpb/M60wGsn8LmdsCsvtcwKai08SivUm/i346BCaf4MCgxH+RLD+ZXzNqUvrU/Aeau38FezwaPNCGpIrFn/8CllsllAmYXPaCbV3FM908vUn+bVCaOxZ0io8eYwgtNoCUX2vJ4HJJLqFRhVKTeEEs0Jr6XfRQJuvcg4nPkQKnzyWnpIYHpiXM6mqS0ZWoNHxJd+ZxKTegqJzUq8BmuIuLpnnwlVFkiszeR0hrYuTkzOfkghqR31OyMmN2tTiUIaCXVPTE5TYuvwhao4n0go7TA5LQnAnQnV8TYpJPPsUyd7injaDpV6PyKZATXy2ohFQ1BKsYVkXqnPE2LREpQySd/sRG8Defp72K4XSERbV+t5gDjcR+phdZBIcKYOuQBxpL6oS2mBZLIeVfOyN/caEJ8GuH5rXfsT8TxRp1MTyTyXqJI1RTwZn1pVXSSTPlGdl9atzg94RkLdHBXxci7iWRZvdflCQ+v7UkbzNrX+GafArMrkHof6+rNcfQUjwT54gn12gVaJV/GK5JYPNuOzc0vtW6/J2TMokP7yGY9fmyGBDK/lO4AKs7nP6OzazJT9RLahxmxuMxonN/yRZQuHcVhHKDLOFiNt5x+VH/ETKO5G09YxAJbjTnvzYWvcyBfo7CeSEfYLJDenPO97MMTfLbe7EuWVVlAoOLwWfIaxv7MLqDCzKat0nuFXuu0TpW2g2HL7mu97/De///jaWEKRGiU5mxV+J3g+UZIzhgbNQya7v7y/VIr9YuXlvbbPZg5LKDT0KSffQhj3qUQ5G5jogVJKbQhIx46tXZjHXVPGKQ0x9+xRxifM80kZH01IaduU8A3zfFDCmwtJPYcSFjDN0FObJ4Oef5dv8pHqPBnUPQoV7/GxW4/VzxbTMMvKp4i/RTRugUKvMEtbx7tk5lDkBWa5UKS81HEOx1vBKH0tB9C78v+3ZhhrekDaFHmASZ41/d1TfQpUYZINBYqBpmFZKQWDVHX1ZTnaFEjf02vcHyKmr3t6kbu2tol9hgIjmGOm76s09hhuD3NMKdDQ1xv7Eeaoa2y6uWO4E8yRZbiyzv/vO9pCeNfY2tGCOc7a2g0DC4azYY65xm/SjAIujFHTOFldUeAIY1w0rjoeKTCGMWoat0WGd/R72mnsiJSmQBfGyDHcm8aOqn7qfsZPJ41jfeuONjmdlL6xWfGezmDM9C0BFmCOBrUFXrkOw11gjiEFLvr+BBuYI3B05YhjQ4E6DFLRlSKUmlCgA4PsdPXZ2lLAa8IgTxTwW5pinPowSUdTM9e0T4ELTNK1KWAP9bTmHcEo36SGOd7Wu7eTrA86Oku6J4qsAxilQ6HyUUNITQ1mSa0p9Bggkql/hzcS5lQdJtRaU8hpwjBbinl11XkyX8AdPni0e5B1fKGEDIyzoQS/DjnDEyVYXRhn5lGC9xpAwqJMGXsYqEop+RWEBg5l+GkYaEs5k2eEG35RziOMVKCk/Ay/182WKMc7wEg9yvLf0r+r0mBCWe8wU1ChNL/abuJfOjmL8howVIZRONVsZ4n/LdVq78qM4gOmCgqMyCt/vO3280v+ZDMi/wBjLWxeTQ4G2/Na1kcYrDnhlbRhtE9eRyGA2d54DaUZDNcs3sxT9+ebN8cdGFG30xL34OvPy0nKsqA7T+ZOrIp682TuxrBMbZ5wR9IWNdngrnQsarEPcF/SZarnPeDuDE9UzR/gDh0LVMvO4C4tL1Rp0oH59CcFVse4X+ki1fAfUrhnzQtVmDRw73plJuXnmjBf8pgUgUoH5tOeUWQ9pfCf0SswHuv1iP+URp7RrR+O+M/pPPqMpD/q4j9p+NqnLOeyDfDf1Tn3KeY8fjbxXzd7ylv8Pb+yn3ZhIA2CdH1fnfCfnEotu23CaBp009P208NmP59vNtn6c2eMu/L/AjZ10QQdzwEoAAAAAElFTkSuQmCC;" parent="1" vertex="1">
          <mxGeometry x="90" y="540" width="34.27" height="55.64" as="geometry" />
        </mxCell>
        <mxCell id="eSSI8X7Q6GoKr2y-t-dQ-6" value="" style="shape=image;imageAspect=0;aspect=fixed;verticalLabelPosition=bottom;verticalAlign=top;image=data:image/png,iVBORw0KGgoAAAANSUhEUgAAAScAAAHfCAMAAAAlRe4HAAAAwFBMVEVHcEwgAAAeGRkeGBodGBodGRkeGRoeGRoeGRoeGRkeGRoeGRoeGRodGRoeGRodGBkeGBkeGRkdGRkcGBohGyEcGhodGBodGRkeGRodGRkdGRoqKiocHBwdGBoeGBkdGRofFxgeGRoeGBocHBweGBkdGRoeFxodGBoeGRkcGRsbEhIeFBkeGRoeGRoeGRoeGRkeGRkdGRodGRoeGRoeGBkeGRoZGRkdGRkeGRoeGRkeGRoAAAAeGRodGhoeGRodGRr+ujfbAAAAQHRSTlMAAilUdZKyxdbt+P/x4M26oYBiPA0fXPWucDcFB0vcZxv+bBbkRiSX/C4KE+hPhkGcyY97MqkQ0baLvgGlWKzBkzNXLwAAF/ZJREFUeAHs1YWx40AUBMARw5iZmZmdf2ZXeJ9Zq6p9606ikQjLdlzPD8IoislMlM3lC8VSuYKHJ9Wal6vzXdlGs9XGAzpdr8fP1f3+AEazuoUMv2MYjMYwVbU44ffFjakFA83mC/5QWGvDMMvCgr+QbXZgkKU/5C9l+xYMsSrG/INcC0boZvk3w8Ia4lXz/LtNDcJtIyaiUIFg7d2QCQmXEKsaMDlxE0LtM0zUoQ2JtjET5q8gT3/BxB3XkMalCuEAspyoRnYASc5UJVxDjtqQyhxXkKK7oEJ+GzKU61SqABHGEyrWhwBWnqrFl0d139KrQHflBVNwheZuE6aiBL3NmY5oDJ1dFkzJARqzjkzLcA99jZieexu6+tfefS4mjmxRw15kpEUySTYiiSiCAWMMxsL2/V/VF944oVtVkqowxfTz/5yZ2UZSxb3GFiPxX3bZ5+1htmhMB/t3i9E8wVQbRmDlek38VWqRfWEE6yXMdCxRWvXZxS+kzyVKG939SDzfwe8cHyxKmrgw0dKinH4PYVZz767nw1lK8c5dCGwnlNJ3YZ7UhDKsHsTG75SSgXl6lNFvQUZqTxlVmCdPCZUxJGU9ivktmGblU+x0VPy6e4VpBhSbDBHBmWInmOaDQk4aUQR5iqVhlqZNoTaiOZYplIVZMhS66FhD/oBZdlpWIOcUsZswSl/LJGO1psgUJhlrmmNkKfIAkzxr2iBpWvf1gtroWgN5oIAV3NWkZYN4hj4FWjBIWdt4sEqBHszR9bTNL+r3tJ2QpsAZcbUokIM5phTo6Xuk8zBHnQJHxHZhuModLY1PNO7ilGGOs8bBYIbhHJhjrvFwyYEC7v2sFuwR34wCSxjjwnAbnVPs4/3U6RXxNSkwhjF2Gn9Pwzt67nIax8xphvOD+1lWuSC+DsOV7uhETwHxtRluDXM8MZyl8bfahzk+KTBEbI/i36oxOhT4RFyBdUe3zMb6TsUv7mrDpcRw5UDbKb02DHKiQEP//7MJ3nQ9eAuKjGGQJwqUVpruX/Vhko6m/e2hfV+Xqrs2BaymnrYaIxilQB1bUzObIgsY5UwRf6HjMGPJhVEaFHpxEVH9/i5Up9ZU/uSlHQp9wjA7CnnPiKJZpJDdvMdrG04D8twqxd5hmq5FMWsBWam3O71ZlqMEqwE53S9KKDVhnDRlOD3IWH1TxhwG+qYML+dCqFOmlAUM9Ek5hRnCua8+pXxDvdSsNzpfqqf+xLKscr9SvZxHvVkAddwJ5dibJUJsi5SUUZ+X8lLir5QKucwQigwoa5Jd4je2Vco6paDOsjcvM1w/N+1CAbdMadZ5gX87DgqU9wxVus+XEmWUaj0XidUZxWkzXeIv0qO8zQgqAdSYndeUN9nMkJDbZzR+Mb/PjuqD7EPtxWJEUyjRyXuMxn9baJi86FKFCo0qY/DyHSTyxWuxZ0hu+824qh0kMCzxSl6R2LjmJUoBGSfeeNGv6CKhVNtiMtZTCnGlCrwGv4GEDhUmV1ggrqHFK3hAQgP7p8Mteh61+0ghkeYbVfk6IqY9dVsPkcihTyH9wTJugXr5Ww3PXHzOJ+JZFanVCIlkParlZRHPbH277/DgTPU2AWLpONSmFiAB90Idai5i6dm3mY7gvlOPrxRimTrUIt9FAkHt5voyN0rU4OIiiT312dxQoeYpJPF6k5/hdJ9qeZsASdQ96uRnEM+qSpVKGSRysKmXvUA8qQ3V6S+QyLFP3YpLxNS2qEj+iGQebzqMYPhOFUqDwIhW+23EFYwcJlZtIaGFzWtwZohtlmcy1iAwJuCiigS2J8Znz8catvS1+UQC7mjNeLy3mcaACw0mTSTRHfQZnf920HvIVoM9kkl9nhhNad+CEg2PkfiVy2u7tz1se+2Hy8lnJP4CSXVyFqW9PB319GgWmOz/kZdyfJ5bjOARybnPXyVKKL7OoEyH0vzHXuqX/9rvHmX5aajgbjcVnyGsx1EaKuUpyb+k8TuHL4+SLtfoZ/d+SEGthUc5lQPCNE6U48+ucGvoDNXeZLd2U6rO1+5MrFPLp4z+AWKNCWXYYwPrtKGM7yNkjF8oI2tendwJJeSXkLN8p4RiYFydpoo3u9wqJXSMq1ONYoUl5C0LFNubVifXolD/qDyXfJIyrE5TCtkdRLP1KXQwrE57HTmfDxR6NaxORYpUUoiqW6RIwaw6jSnid7Q8zX7TqDo9a2qAUKXI1qg6nSngLTS1tXg1qk4fFMjruuT7aFSdLF13+NoU6JtUpyEFLBfxNB2G85oG1Wmr72L/hQIHg+pUp0BG//+1CXV6YDh/pS9XJmtQnXYMV0R8E4bbG1SnPMN9Ib4qw9UMqlOB4TYa++68G1SnE8PVNd5cLRhUpz7DZTR+SysG1anMcFONOUUng+o00Tip7zFc0bzn7s/vSeD05/0k5UVjG8DsHX3vvjWOn+YMlzeoTo8aF9M+7mg8vte4mLZmuLNBdcrqy5VJU+DJoDp9UqCt777Ms951xssQ6nT0pQbkNff2dBvZt77HEFb1/LyCEk2f4UpLxLOyGc5fIrbg8PrhUIZXzPWWSK6v68EbUNe0JTXdTRiFXa2vkNCXppauwUlTo/3OfM3o7Pf2UvMN8wbi6Gk5orl6OjEua35AfFtNnd4LGuo/yzlMpNJ2EVPXoUhPS8tnu4toDnmfifUHLuKpUqTfRVTNiep7nZ081SjHrNSrjoYfc8UnyGdvHpXpZwJENn6nkD9FNBmKpSGtebapVKGDiHprDe3uZiUK9SGtN6FqXm2FCJY5j1KKK8gbF6nwWW5VqcO6DWmHImUVlpDVrCgMbggGJWryPoSU1JNNeS8ryBlXKOEEKat36rN+hoRWgZEUh5Ax61Nd/E5nQq1yXYi0S4zI6kEsU6IM5wgJI5uaVWYItfpidN5+iXDNOeXs9bfOlWNNEWI6YSyTtpoPuD2E0KzIa/BH+J3u3mNc31P8RvD8QllzCB3WvJJcCr+0KDKJyuCIf1uNTpRmtyCyLfFqvrr4t1TWZkL24yCNJHkpNYhkbF7RRxP/1PqgEuvv+eugnWkPXnffFqNxWhCo+7yqyhF/l7H4814hMOK1vfytUMcL9Uu+nNX2eXUvTfwf2wlvwRThpjZ/wEcX/5P74PMWvCFcw6FWgn7WixNvgjVEqIXFH7IHEAwc3gTvOfmVfl0GGFZ5I84I5X7z5/gPFm9EwZU4jvWH1UKojMc/SHuLUOkSDTHxfrBN+7JIQ8yX2R9s+z+nBrrW1Tc/lr4z9WiE/FjQ+CGZnPhIggmc/9Oae6Pv12T+kKCS1hjDRfoDCBx8xuZXLg+fndmwie5qtpiO5tU1tfA3Lv7i06ZadgYCwQvj8SrnXhP/FCye8iWqVm7g7xprqmRto59wSR593e292VTp7Yh/GhaozksLIm6R0Xn5RoBQ41eLqlgZ/EJ37lENb+NqSR3w8weILZ8mVKI6TLwXmny3fTlhVN9pyFk+2EzMHgX4nfEXk3sbQkJWa8DI7J0JnRYI0yszmf4UMo6W5qjddokJ+GcX4Zobh/E5r11IyUZ9CBBV+sTYyluIDWs+47F3rZiNmAXKB0S3rDGmyxFSZrEqZedakNVmFKchYtkwDusT0mb7EqMpnYeQV2AEhSNiGvmM7GOIKJqjF8qrDJqIIM0IPpaQlXyf2c6mEFV6U6SM4kNaY3RqpYkEnpKPBmSks1WHYZzqUxpRuWtK64+RyIbyvH030Z3cS9Hnv/nFt2zHRQw9SrNmSCa4XDO0qJvuPW12+epL5VSpfOR351Ev3UVclwR7yQKJtiosF7ekW6KsPZJbOJS1xS3pUVbFhQIDysrhlswpye9AhaBASeUAN6R87T/vwqekA27HjJLWRyiyp6QH3I4BJY2gyrFEOR+4HW+Us15CmQ3lOC5uxoRyslBn7FDOArdiSDlWEwrtKWeAW/H8I2OZNOXUcCseKKcDpSqU0seteKSUItQaUc4RN6JIKa9Qa+ybNdJ07R/6932hlIxZo3ErBcU2GkYjGm0pJQ/VppSyw21oU8oTVFvaRs1cXill+1MfkDJuQ45ShlAuTxl+gJtwoYxSAOXOlNLETchTRgXq1SmlhZtQoIx3qNczaqD5QhlvPzci6eAmnH5sFHOglIZJ07v9z80EpibV6Qz1WkbV6UQZc6i3MGpPuEIZF6jXMOr9VNA3DRaYGjUuqFLGN9T7pJSZSbt3k5+bga+MOoTR/KmZpZfCTdhQSuenZgKWWacL2lAtKFHGyaxDYvOfGj7lcRsWP7Xf+KThD6TRkXKGUCxPKU+GHVepQy23ZNT0DqhSyvsPHf9owayNBH/4I6fTSinciDp/YmP26Gj4GWu1oJxTAIUGxh1kTZUopwd1Un3zbiR8UE7h+rv19Ju4GQ/Xv20SnCingtvRoKRCcO2fE+e4Ha5DSW2ocZxQ0jNuSP7aFzdylOQscUPq1PoYJOjH9YhbMvYTXOfUeqGzjZtSUNbNVUaNsuwjbsqI0l7c6z3lrOK2jG1KqwVIpGFT2h5JDbf1zS5fKPbLVrnfL+Rrm/p0qP+Ll/yowcJiBLUmYltlzlWLv2J9nJ/HWheDEq8wtiYJ2xvKSW33J4+hTuetC7EEbY28LOJKlxmR/+BGL9LOogxrN00lm+MJnAPE0rEYXWGGKIYPZcqbPAwTvckFal3E0HMYR6kOaZ2LzWj8SxoR7JKH+wmkHnzG9LiClEaeMXj5DqSlPUZSyiCa4Tfjm2whtqgyJu/9AFlfjKg2hrygbjEJ/9xFuPHOZ3x+7gg5aZ8RWU8pSFoUmFRxgRBB22Ii8u1AL4zs9BxAQmvuMzknpB/rrMCE5NvLzmxGd/pMQSBd86nG+xi/VneoglOHjD3jKG/S+L1mu+pTmXUPv3B8pCq1ZaLWtQIv2UMKvzD+vDjK00jwT+ki1SmmITZgbNZjtjdz8X+MG/VckRoUD4JU6YScDIRSBSZi9ysf+be3auFkMRn5hppPvo4YCYGFTQN8t/C/BXuq96B0OqyfuOFvakcd5ikIuBUa4dIEgFSNelzEgx2bRig3gGBHXeYQGdEMfs7dUJ8HiLzREH3qNIBAs88/SD8DgbTFP0gnDYGpzx/z0ZvwRpyWEMjypxSPGOd5I3YQ2fBnrFsAMHB4G9oQCOb8CdYC/0O6wptQmkEgdeH1OQ3cWF5+FSLuO6/NmeL/2pZ5CzIQWVZ5Xc4Wf3W88AZMmhBxL9cv099kLP68M4RSOV7PuoN/aRWogn9627Qz08Y0U998FT1GYqch9urxSvoz/ELq1WZC1vx5hb8aZ3YWI3iDhLrPqyiM8WudPhPw3p9d/Fs3U6U0Pw0JU4tXsOvid5o7xuW9LfA7nTxl1SBjdqJugsjBZ4uxnDoIsy1Sjj+DjOWOepU7CDesxtqVcRFOeiw7h5zPEjV6PEIkeLLjFV9gO6EMewU5rQ9qIX9UbnFiJIUVZIwras/tBoMStagOIae79ygvv4Sc5ofiDvWtPNVbtyFvOqGsvAtZ3Q/VPXh6fSYiPsEmsHqknMIS8o4n1TcLulmLCuXTiEJ+/a68QhTDNYUmAaI4nh0qUtgihlmFQnYH0Ux99S3yxucSFfje6rvxnUVUGx0ZGqvXCZPxvxqI65siJxdRdftaOhK47QLjW59bOpMCvIaWTmH2EnGk92vG4Vczrt6Gm1+Io6qtc4M73VmMxv8YjHU3pPAOiGOrM+TH3W5OlGVd2isk9qiruU9B8733YSZ38ikw+RodUtfJEX3WdWW5j8S6nUGRv7XpDaHK0dMVy9x0rtIO5+s63f8aFJjra252MKhObX2RXXUKPBtUpyzDeSt9rfWfDKpTTmOS4YTh9gbV6ZHhvjQ2x6wZVKdvhtto/K2+G1SnF4ara2w2XDCoTkWNCZV1hqsYVKe+xk7AGYY7GVSnicZ2jD2GKxpUp/Kf39Of99MVE54Gf7532sdPc4bL39F4/BHxfdzReHz3Z36nZHncG+uLLHy6p/WnT31d45/vaT1zp2+HYmFQncYUKC11hTX4S4PqhLWuB29AgSJMqlNVV7Z+hQJfRtVpoynLs0eRrFF16mkKNytQpGFUnY6+ljSqDEXsrlF1QoUiRRdRNScU+YBZddroyA/KUShrWJ0aFPKniKbnUWhhWJ1SawpNhoiiZVGoD8PqhDnFTkfIWxUptjGuTltK+O5CVvOFEhbG1SnoSxXqCDmrAiWcYFyd8EoZpyFktIqUMTKwTkObMtZTiD1blOEcDawTapTib5YI18x5lLKHiXWa+ZTT7yFMr0w5dsvIOuGNsqpb/M60wGsn8LmdsCsvtcwKai08SivUm/i346BCaf4MCgxH+RLD+ZXzNqUvrU/Aeau38FezwaPNCGpIrFn/8CllsllAmYXPaCbV3FM908vUn+bVCaOxZ0io8eYwgtNoCUX2vJ4HJJLqFRhVKTeEEs0Jr6XfRQJuvcg4nPkQKnzyWnpIYHpiXM6mqS0ZWoNHxJd+ZxKTegqJzUq8BmuIuLpnnwlVFkiszeR0hrYuTkzOfkghqR31OyMmN2tTiUIaCXVPTE5TYuvwhao4n0go7TA5LQnAnQnV8TYpJPPsUyd7injaDpV6PyKZATXy2ohFQ1BKsYVkXqnPE2LREpQySd/sRG8Defp72K4XSERbV+t5gDjcR+phdZBIcKYOuQBxpL6oS2mBZLIeVfOyN/caEJ8GuH5rXfsT8TxRp1MTyTyXqJI1RTwZn1pVXSSTPlGdl9atzg94RkLdHBXxci7iWRZvdflCQ+v7UkbzNrX+GafArMrkHof6+rNcfQUjwT54gn12gVaJV/GK5JYPNuOzc0vtW6/J2TMokP7yGY9fmyGBDK/lO4AKs7nP6OzazJT9RLahxmxuMxonN/yRZQuHcVhHKDLOFiNt5x+VH/ETKO5G09YxAJbjTnvzYWvcyBfo7CeSEfYLJDenPO97MMTfLbe7EuWVVlAoOLwWfIaxv7MLqDCzKat0nuFXuu0TpW2g2HL7mu97/De///jaWEKRGiU5mxV+J3g+UZIzhgbNQya7v7y/VIr9YuXlvbbPZg5LKDT0KSffQhj3qUQ5G5jogVJKbQhIx46tXZjHXVPGKQ0x9+xRxifM80kZH01IaduU8A3zfFDCmwtJPYcSFjDN0FObJ4Oef5dv8pHqPBnUPQoV7/GxW4/VzxbTMMvKp4i/RTRugUKvMEtbx7tk5lDkBWa5UKS81HEOx1vBKH0tB9C78v+3ZhhrekDaFHmASZ41/d1TfQpUYZINBYqBpmFZKQWDVHX1ZTnaFEjf02vcHyKmr3t6kbu2tol9hgIjmGOm76s09hhuD3NMKdDQ1xv7Eeaoa2y6uWO4E8yRZbiyzv/vO9pCeNfY2tGCOc7a2g0DC4azYY65xm/SjAIujFHTOFldUeAIY1w0rjoeKTCGMWoat0WGd/R72mnsiJSmQBfGyDHcm8aOqn7qfsZPJ41jfeuONjmdlL6xWfGezmDM9C0BFmCOBrUFXrkOw11gjiEFLvr+BBuYI3B05YhjQ4E6DFLRlSKUmlCgA4PsdPXZ2lLAa8IgTxTwW5pinPowSUdTM9e0T4ELTNK1KWAP9bTmHcEo36SGOd7Wu7eTrA86Oku6J4qsAxilQ6HyUUNITQ1mSa0p9Bggkql/hzcS5lQdJtRaU8hpwjBbinl11XkyX8AdPni0e5B1fKGEDIyzoQS/DjnDEyVYXRhn5lGC9xpAwqJMGXsYqEop+RWEBg5l+GkYaEs5k2eEG35RziOMVKCk/Ay/182WKMc7wEg9yvLf0r+r0mBCWe8wU1ChNL/abuJfOjmL8howVIZRONVsZ4n/LdVq78qM4gOmCgqMyCt/vO3280v+ZDMi/wBjLWxeTQ4G2/Na1kcYrDnhlbRhtE9eRyGA2d54DaUZDNcs3sxT9+ebN8cdGFG30xL34OvPy0nKsqA7T+ZOrIp682TuxrBMbZ5wR9IWNdngrnQsarEPcF/SZarnPeDuDE9UzR/gDh0LVMvO4C4tL1Rp0oH59CcFVse4X+ki1fAfUrhnzQtVmDRw73plJuXnmjBf8pgUgUoH5tOeUWQ9pfCf0SswHuv1iP+URp7RrR+O+M/pPPqMpD/q4j9p+NqnLOeyDfDf1Tn3KeY8fjbxXzd7ylv8Pb+yn3ZhIA2CdH1fnfCfnEotu23CaBp009P208NmP59vNtn6c2eMu/L/AjZ10QQdzwEoAAAAAElFTkSuQmCC;" parent="1" vertex="1">
          <mxGeometry x="90" y="650" width="34.27" height="55.64" as="geometry" />
        </mxCell>
        <mxCell id="eSSI8X7Q6GoKr2y-t-dQ-7" value="" style="shape=image;imageAspect=0;aspect=fixed;verticalLabelPosition=bottom;verticalAlign=top;image=data:image/png,iVBORw0KGgoAAAANSUhEUgAAAScAAAHfCAMAAAAlRe4HAAAAwFBMVEVHcEwgAAAeGRkeGBodGBodGRkeGRoeGRoeGRoeGRkeGRoeGRoeGRodGRoeGRodGBkeGBkeGRkdGRkcGBohGyEcGhodGBodGRkeGRodGRkdGRoqKiocHBwdGBoeGBkdGRofFxgeGRoeGBocHBweGBkdGRoeFxodGBoeGRkcGRsbEhIeFBkeGRoeGRoeGRoeGRkeGRkdGRodGRoeGRoeGBkeGRoZGRkdGRkeGRoeGRkeGRoAAAAeGRodGhoeGRodGRr+ujfbAAAAQHRSTlMAAilUdZKyxdbt+P/x4M26oYBiPA0fXPWucDcFB0vcZxv+bBbkRiSX/C4KE+hPhkGcyY97MqkQ0baLvgGlWKzBkzNXLwAAF/ZJREFUeAHs1YWx40AUBMARw5iZmZmdf2ZXeJ9Zq6p9606ikQjLdlzPD8IoislMlM3lC8VSuYKHJ9Wal6vzXdlGs9XGAzpdr8fP1f3+AEazuoUMv2MYjMYwVbU44ffFjakFA83mC/5QWGvDMMvCgr+QbXZgkKU/5C9l+xYMsSrG/INcC0boZvk3w8Ia4lXz/LtNDcJtIyaiUIFg7d2QCQmXEKsaMDlxE0LtM0zUoQ2JtjET5q8gT3/BxB3XkMalCuEAspyoRnYASc5UJVxDjtqQyhxXkKK7oEJ+GzKU61SqABHGEyrWhwBWnqrFl0d139KrQHflBVNwheZuE6aiBL3NmY5oDJ1dFkzJARqzjkzLcA99jZieexu6+tfefS4mjmxRw15kpEUySTYiiSiCAWMMxsL2/V/VF944oVtVkqowxfTz/5yZ2UZSxb3GFiPxX3bZ5+1htmhMB/t3i9E8wVQbRmDlek38VWqRfWEE6yXMdCxRWvXZxS+kzyVKG939SDzfwe8cHyxKmrgw0dKinH4PYVZz767nw1lK8c5dCGwnlNJ3YZ7UhDKsHsTG75SSgXl6lNFvQUZqTxlVmCdPCZUxJGU9ivktmGblU+x0VPy6e4VpBhSbDBHBmWInmOaDQk4aUQR5iqVhlqZNoTaiOZYplIVZMhS66FhD/oBZdlpWIOcUsZswSl/LJGO1psgUJhlrmmNkKfIAkzxr2iBpWvf1gtroWgN5oIAV3NWkZYN4hj4FWjBIWdt4sEqBHszR9bTNL+r3tJ2QpsAZcbUokIM5phTo6Xuk8zBHnQJHxHZhuModLY1PNO7ilGGOs8bBYIbhHJhjrvFwyYEC7v2sFuwR34wCSxjjwnAbnVPs4/3U6RXxNSkwhjF2Gn9Pwzt67nIax8xphvOD+1lWuSC+DsOV7uhETwHxtRluDXM8MZyl8bfahzk+KTBEbI/i36oxOhT4RFyBdUe3zMb6TsUv7mrDpcRw5UDbKb02DHKiQEP//7MJ3nQ9eAuKjGGQJwqUVpruX/Vhko6m/e2hfV+Xqrs2BaymnrYaIxilQB1bUzObIgsY5UwRf6HjMGPJhVEaFHpxEVH9/i5Up9ZU/uSlHQp9wjA7CnnPiKJZpJDdvMdrG04D8twqxd5hmq5FMWsBWam3O71ZlqMEqwE53S9KKDVhnDRlOD3IWH1TxhwG+qYML+dCqFOmlAUM9Ek5hRnCua8+pXxDvdSsNzpfqqf+xLKscr9SvZxHvVkAddwJ5dibJUJsi5SUUZ+X8lLir5QKucwQigwoa5Jd4je2Vco6paDOsjcvM1w/N+1CAbdMadZ5gX87DgqU9wxVus+XEmWUaj0XidUZxWkzXeIv0qO8zQgqAdSYndeUN9nMkJDbZzR+Mb/PjuqD7EPtxWJEUyjRyXuMxn9baJi86FKFCo0qY/DyHSTyxWuxZ0hu+824qh0kMCzxSl6R2LjmJUoBGSfeeNGv6CKhVNtiMtZTCnGlCrwGv4GEDhUmV1ggrqHFK3hAQgP7p8Mteh61+0ghkeYbVfk6IqY9dVsPkcihTyH9wTJugXr5Ww3PXHzOJ+JZFanVCIlkParlZRHPbH277/DgTPU2AWLpONSmFiAB90Idai5i6dm3mY7gvlOPrxRimTrUIt9FAkHt5voyN0rU4OIiiT312dxQoeYpJPF6k5/hdJ9qeZsASdQ96uRnEM+qSpVKGSRysKmXvUA8qQ3V6S+QyLFP3YpLxNS2qEj+iGQebzqMYPhOFUqDwIhW+23EFYwcJlZtIaGFzWtwZohtlmcy1iAwJuCiigS2J8Znz8catvS1+UQC7mjNeLy3mcaACw0mTSTRHfQZnf920HvIVoM9kkl9nhhNad+CEg2PkfiVy2u7tz1se+2Hy8lnJP4CSXVyFqW9PB319GgWmOz/kZdyfJ5bjOARybnPXyVKKL7OoEyH0vzHXuqX/9rvHmX5aajgbjcVnyGsx1EaKuUpyb+k8TuHL4+SLtfoZ/d+SEGthUc5lQPCNE6U48+ucGvoDNXeZLd2U6rO1+5MrFPLp4z+AWKNCWXYYwPrtKGM7yNkjF8oI2tendwJJeSXkLN8p4RiYFydpoo3u9wqJXSMq1ONYoUl5C0LFNubVifXolD/qDyXfJIyrE5TCtkdRLP1KXQwrE57HTmfDxR6NaxORYpUUoiqW6RIwaw6jSnid7Q8zX7TqDo9a2qAUKXI1qg6nSngLTS1tXg1qk4fFMjruuT7aFSdLF13+NoU6JtUpyEFLBfxNB2G85oG1Wmr72L/hQIHg+pUp0BG//+1CXV6YDh/pS9XJmtQnXYMV0R8E4bbG1SnPMN9Ib4qw9UMqlOB4TYa++68G1SnE8PVNd5cLRhUpz7DZTR+SysG1anMcFONOUUng+o00Tip7zFc0bzn7s/vSeD05/0k5UVjG8DsHX3vvjWOn+YMlzeoTo8aF9M+7mg8vte4mLZmuLNBdcrqy5VJU+DJoDp9UqCt777Ms951xssQ6nT0pQbkNff2dBvZt77HEFb1/LyCEk2f4UpLxLOyGc5fIrbg8PrhUIZXzPWWSK6v68EbUNe0JTXdTRiFXa2vkNCXppauwUlTo/3OfM3o7Pf2UvMN8wbi6Gk5orl6OjEua35AfFtNnd4LGuo/yzlMpNJ2EVPXoUhPS8tnu4toDnmfifUHLuKpUqTfRVTNiep7nZ081SjHrNSrjoYfc8UnyGdvHpXpZwJENn6nkD9FNBmKpSGtebapVKGDiHprDe3uZiUK9SGtN6FqXm2FCJY5j1KKK8gbF6nwWW5VqcO6DWmHImUVlpDVrCgMbggGJWryPoSU1JNNeS8ryBlXKOEEKat36rN+hoRWgZEUh5Ax61Nd/E5nQq1yXYi0S4zI6kEsU6IM5wgJI5uaVWYItfpidN5+iXDNOeXs9bfOlWNNEWI6YSyTtpoPuD2E0KzIa/BH+J3u3mNc31P8RvD8QllzCB3WvJJcCr+0KDKJyuCIf1uNTpRmtyCyLfFqvrr4t1TWZkL24yCNJHkpNYhkbF7RRxP/1PqgEuvv+eugnWkPXnffFqNxWhCo+7yqyhF/l7H4814hMOK1vfytUMcL9Uu+nNX2eXUvTfwf2wlvwRThpjZ/wEcX/5P74PMWvCFcw6FWgn7WixNvgjVEqIXFH7IHEAwc3gTvOfmVfl0GGFZ5I84I5X7z5/gPFm9EwZU4jvWH1UKojMc/SHuLUOkSDTHxfrBN+7JIQ8yX2R9s+z+nBrrW1Tc/lr4z9WiE/FjQ+CGZnPhIggmc/9Oae6Pv12T+kKCS1hjDRfoDCBx8xuZXLg+fndmwie5qtpiO5tU1tfA3Lv7i06ZadgYCwQvj8SrnXhP/FCye8iWqVm7g7xprqmRto59wSR593e292VTp7Yh/GhaozksLIm6R0Xn5RoBQ41eLqlgZ/EJ37lENb+NqSR3w8weILZ8mVKI6TLwXmny3fTlhVN9pyFk+2EzMHgX4nfEXk3sbQkJWa8DI7J0JnRYI0yszmf4UMo6W5qjddokJ+GcX4Zobh/E5r11IyUZ9CBBV+sTYyluIDWs+47F3rZiNmAXKB0S3rDGmyxFSZrEqZedakNVmFKchYtkwDusT0mb7EqMpnYeQV2AEhSNiGvmM7GOIKJqjF8qrDJqIIM0IPpaQlXyf2c6mEFV6U6SM4kNaY3RqpYkEnpKPBmSks1WHYZzqUxpRuWtK64+RyIbyvH030Z3cS9Hnv/nFt2zHRQw9SrNmSCa4XDO0qJvuPW12+epL5VSpfOR351Ev3UVclwR7yQKJtiosF7ekW6KsPZJbOJS1xS3pUVbFhQIDysrhlswpye9AhaBASeUAN6R87T/vwqekA27HjJLWRyiyp6QH3I4BJY2gyrFEOR+4HW+Us15CmQ3lOC5uxoRyslBn7FDOArdiSDlWEwrtKWeAW/H8I2OZNOXUcCseKKcDpSqU0seteKSUItQaUc4RN6JIKa9Qa+ybNdJ07R/6932hlIxZo3ErBcU2GkYjGm0pJQ/VppSyw21oU8oTVFvaRs1cXill+1MfkDJuQ45ShlAuTxl+gJtwoYxSAOXOlNLETchTRgXq1SmlhZtQoIx3qNczaqD5QhlvPzci6eAmnH5sFHOglIZJ07v9z80EpibV6Qz1WkbV6UQZc6i3MGpPuEIZF6jXMOr9VNA3DRaYGjUuqFLGN9T7pJSZSbt3k5+bga+MOoTR/KmZpZfCTdhQSuenZgKWWacL2lAtKFHGyaxDYvOfGj7lcRsWP7Xf+KThD6TRkXKGUCxPKU+GHVepQy23ZNT0DqhSyvsPHf9owayNBH/4I6fTSinciDp/YmP26Gj4GWu1oJxTAIUGxh1kTZUopwd1Un3zbiR8UE7h+rv19Ju4GQ/Xv20SnCingtvRoKRCcO2fE+e4Ha5DSW2ocZxQ0jNuSP7aFzdylOQscUPq1PoYJOjH9YhbMvYTXOfUeqGzjZtSUNbNVUaNsuwjbsqI0l7c6z3lrOK2jG1KqwVIpGFT2h5JDbf1zS5fKPbLVrnfL+Rrm/p0qP+Ll/yowcJiBLUmYltlzlWLv2J9nJ/HWheDEq8wtiYJ2xvKSW33J4+hTuetC7EEbY28LOJKlxmR/+BGL9LOogxrN00lm+MJnAPE0rEYXWGGKIYPZcqbPAwTvckFal3E0HMYR6kOaZ2LzWj8SxoR7JKH+wmkHnzG9LiClEaeMXj5DqSlPUZSyiCa4Tfjm2whtqgyJu/9AFlfjKg2hrygbjEJ/9xFuPHOZ3x+7gg5aZ8RWU8pSFoUmFRxgRBB22Ii8u1AL4zs9BxAQmvuMzknpB/rrMCE5NvLzmxGd/pMQSBd86nG+xi/VneoglOHjD3jKG/S+L1mu+pTmXUPv3B8pCq1ZaLWtQIv2UMKvzD+vDjK00jwT+ki1SmmITZgbNZjtjdz8X+MG/VckRoUD4JU6YScDIRSBSZi9ysf+be3auFkMRn5hppPvo4YCYGFTQN8t/C/BXuq96B0OqyfuOFvakcd5ikIuBUa4dIEgFSNelzEgx2bRig3gGBHXeYQGdEMfs7dUJ8HiLzREH3qNIBAs88/SD8DgbTFP0gnDYGpzx/z0ZvwRpyWEMjypxSPGOd5I3YQ2fBnrFsAMHB4G9oQCOb8CdYC/0O6wptQmkEgdeH1OQ3cWF5+FSLuO6/NmeL/2pZ5CzIQWVZ5Xc4Wf3W88AZMmhBxL9cv099kLP68M4RSOV7PuoN/aRWogn9627Qz08Y0U998FT1GYqch9urxSvoz/ELq1WZC1vx5hb8aZ3YWI3iDhLrPqyiM8WudPhPw3p9d/Fs3U6U0Pw0JU4tXsOvid5o7xuW9LfA7nTxl1SBjdqJugsjBZ4uxnDoIsy1Sjj+DjOWOepU7CDesxtqVcRFOeiw7h5zPEjV6PEIkeLLjFV9gO6EMewU5rQ9qIX9UbnFiJIUVZIwras/tBoMStagOIae79ygvv4Sc5ofiDvWtPNVbtyFvOqGsvAtZ3Q/VPXh6fSYiPsEmsHqknMIS8o4n1TcLulmLCuXTiEJ+/a68QhTDNYUmAaI4nh0qUtgihlmFQnYH0Ux99S3yxucSFfje6rvxnUVUGx0ZGqvXCZPxvxqI65siJxdRdftaOhK47QLjW59bOpMCvIaWTmH2EnGk92vG4Vczrt6Gm1+Io6qtc4M73VmMxv8YjHU3pPAOiGOrM+TH3W5OlGVd2isk9qiruU9B8733YSZ38ikw+RodUtfJEX3WdWW5j8S6nUGRv7XpDaHK0dMVy9x0rtIO5+s63f8aFJjra252MKhObX2RXXUKPBtUpyzDeSt9rfWfDKpTTmOS4YTh9gbV6ZHhvjQ2x6wZVKdvhtto/K2+G1SnF4ara2w2XDCoTkWNCZV1hqsYVKe+xk7AGYY7GVSnicZ2jD2GKxpUp/Kf39Of99MVE54Gf7532sdPc4bL39F4/BHxfdzReHz3Z36nZHncG+uLLHy6p/WnT31d45/vaT1zp2+HYmFQncYUKC11hTX4S4PqhLWuB29AgSJMqlNVV7Z+hQJfRtVpoynLs0eRrFF16mkKNytQpGFUnY6+ljSqDEXsrlF1QoUiRRdRNScU+YBZddroyA/KUShrWJ0aFPKniKbnUWhhWJ1SawpNhoiiZVGoD8PqhDnFTkfIWxUptjGuTltK+O5CVvOFEhbG1SnoSxXqCDmrAiWcYFyd8EoZpyFktIqUMTKwTkObMtZTiD1blOEcDawTapTib5YI18x5lLKHiXWa+ZTT7yFMr0w5dsvIOuGNsqpb/M60wGsn8LmdsCsvtcwKai08SivUm/i346BCaf4MCgxH+RLD+ZXzNqUvrU/Aeau38FezwaPNCGpIrFn/8CllsllAmYXPaCbV3FM908vUn+bVCaOxZ0io8eYwgtNoCUX2vJ4HJJLqFRhVKTeEEs0Jr6XfRQJuvcg4nPkQKnzyWnpIYHpiXM6mqS0ZWoNHxJd+ZxKTegqJzUq8BmuIuLpnnwlVFkiszeR0hrYuTkzOfkghqR31OyMmN2tTiUIaCXVPTE5TYuvwhao4n0go7TA5LQnAnQnV8TYpJPPsUyd7injaDpV6PyKZATXy2ohFQ1BKsYVkXqnPE2LREpQySd/sRG8Defp72K4XSERbV+t5gDjcR+phdZBIcKYOuQBxpL6oS2mBZLIeVfOyN/caEJ8GuH5rXfsT8TxRp1MTyTyXqJI1RTwZn1pVXSSTPlGdl9atzg94RkLdHBXxci7iWRZvdflCQ+v7UkbzNrX+GafArMrkHof6+rNcfQUjwT54gn12gVaJV/GK5JYPNuOzc0vtW6/J2TMokP7yGY9fmyGBDK/lO4AKs7nP6OzazJT9RLahxmxuMxonN/yRZQuHcVhHKDLOFiNt5x+VH/ETKO5G09YxAJbjTnvzYWvcyBfo7CeSEfYLJDenPO97MMTfLbe7EuWVVlAoOLwWfIaxv7MLqDCzKat0nuFXuu0TpW2g2HL7mu97/De///jaWEKRGiU5mxV+J3g+UZIzhgbNQya7v7y/VIr9YuXlvbbPZg5LKDT0KSffQhj3qUQ5G5jogVJKbQhIx46tXZjHXVPGKQ0x9+xRxifM80kZH01IaduU8A3zfFDCmwtJPYcSFjDN0FObJ4Oef5dv8pHqPBnUPQoV7/GxW4/VzxbTMMvKp4i/RTRugUKvMEtbx7tk5lDkBWa5UKS81HEOx1vBKH0tB9C78v+3ZhhrekDaFHmASZ41/d1TfQpUYZINBYqBpmFZKQWDVHX1ZTnaFEjf02vcHyKmr3t6kbu2tol9hgIjmGOm76s09hhuD3NMKdDQ1xv7Eeaoa2y6uWO4E8yRZbiyzv/vO9pCeNfY2tGCOc7a2g0DC4azYY65xm/SjAIujFHTOFldUeAIY1w0rjoeKTCGMWoat0WGd/R72mnsiJSmQBfGyDHcm8aOqn7qfsZPJ41jfeuONjmdlL6xWfGezmDM9C0BFmCOBrUFXrkOw11gjiEFLvr+BBuYI3B05YhjQ4E6DFLRlSKUmlCgA4PsdPXZ2lLAa8IgTxTwW5pinPowSUdTM9e0T4ELTNK1KWAP9bTmHcEo36SGOd7Wu7eTrA86Oku6J4qsAxilQ6HyUUNITQ1mSa0p9Bggkql/hzcS5lQdJtRaU8hpwjBbinl11XkyX8AdPni0e5B1fKGEDIyzoQS/DjnDEyVYXRhn5lGC9xpAwqJMGXsYqEop+RWEBg5l+GkYaEs5k2eEG35RziOMVKCk/Ay/182WKMc7wEg9yvLf0r+r0mBCWe8wU1ChNL/abuJfOjmL8howVIZRONVsZ4n/LdVq78qM4gOmCgqMyCt/vO3280v+ZDMi/wBjLWxeTQ4G2/Na1kcYrDnhlbRhtE9eRyGA2d54DaUZDNcs3sxT9+ebN8cdGFG30xL34OvPy0nKsqA7T+ZOrIp682TuxrBMbZ5wR9IWNdngrnQsarEPcF/SZarnPeDuDE9UzR/gDh0LVMvO4C4tL1Rp0oH59CcFVse4X+ki1fAfUrhnzQtVmDRw73plJuXnmjBf8pgUgUoH5tOeUWQ9pfCf0SswHuv1iP+URp7RrR+O+M/pPPqMpD/q4j9p+NqnLOeyDfDf1Tn3KeY8fjbxXzd7ylv8Pb+yn3ZhIA2CdH1fnfCfnEotu23CaBp009P208NmP59vNtn6c2eMu/L/AjZ10QQdzwEoAAAAAElFTkSuQmCC;" parent="1" vertex="1">
          <mxGeometry x="90" y="760" width="34.27" height="55.64" as="geometry" />
        </mxCell>
        <mxCell id="eSSI8X7Q6GoKr2y-t-dQ-36" style="edgeStyle=none;rounded=0;orthogonalLoop=1;jettySize=auto;html=1;" parent="1" source="eSSI8X7Q6GoKr2y-t-dQ-14" target="eSSI8X7Q6GoKr2y-t-dQ-29" edge="1">
          <mxGeometry relative="1" as="geometry" />
        </mxCell>
        <mxCell id="eSSI8X7Q6GoKr2y-t-dQ-37" style="edgeStyle=none;rounded=0;orthogonalLoop=1;jettySize=auto;html=1;" parent="1" source="eSSI8X7Q6GoKr2y-t-dQ-14" target="eSSI8X7Q6GoKr2y-t-dQ-28" edge="1">
          <mxGeometry relative="1" as="geometry" />
        </mxCell>
        <mxCell id="eSSI8X7Q6GoKr2y-t-dQ-38" style="edgeStyle=none;rounded=0;orthogonalLoop=1;jettySize=auto;html=1;" parent="1" source="eSSI8X7Q6GoKr2y-t-dQ-14" target="eSSI8X7Q6GoKr2y-t-dQ-30" edge="1">
          <mxGeometry relative="1" as="geometry" />
        </mxCell>
        <mxCell id="eSSI8X7Q6GoKr2y-t-dQ-14" value="Kafka Central Platform&amp;nbsp;" style="strokeWidth=2;html=1;shape=mxgraph.flowchart.database;whiteSpace=wrap;" parent="1" vertex="1">
          <mxGeometry x="340" y="512.5" width="115" height="105" as="geometry" />
        </mxCell>
        <mxCell id="eSSI8X7Q6GoKr2y-t-dQ-56" style="edgeStyle=none;rounded=0;orthogonalLoop=1;jettySize=auto;html=1;dashed=1;" parent="1" source="eSSI8X7Q6GoKr2y-t-dQ-28" target="eSSI8X7Q6GoKr2y-t-dQ-52" edge="1">
          <mxGeometry relative="1" as="geometry" />
        </mxCell>
        <mxCell id="eSSI8X7Q6GoKr2y-t-dQ-28" value="Kafka Self-Service View" style="sketch=0;outlineConnect=0;fontColor=#232F3E;gradientColor=none;strokeColor=#232F3E;fillColor=#ffffff;dashed=0;verticalLabelPosition=bottom;verticalAlign=top;align=center;html=1;fontSize=12;fontStyle=0;aspect=fixed;shape=mxgraph.aws4.resourceIcon;resIcon=mxgraph.aws4.table;" parent="1" vertex="1">
          <mxGeometry x="650" y="313" width="60" height="60" as="geometry" />
        </mxCell>
        <mxCell id="eSSI8X7Q6GoKr2y-t-dQ-57" style="edgeStyle=none;rounded=0;orthogonalLoop=1;jettySize=auto;html=1;dashed=1;" parent="1" source="eSSI8X7Q6GoKr2y-t-dQ-29" target="eSSI8X7Q6GoKr2y-t-dQ-53" edge="1">
          <mxGeometry relative="1" as="geometry" />
        </mxCell>
        <mxCell id="eSSI8X7Q6GoKr2y-t-dQ-29" value="Kafka Self-Service View" style="sketch=0;outlineConnect=0;fontColor=#232F3E;gradientColor=none;strokeColor=#232F3E;fillColor=#ffffff;dashed=0;verticalLabelPosition=bottom;verticalAlign=top;align=center;html=1;fontSize=12;fontStyle=0;aspect=fixed;shape=mxgraph.aws4.resourceIcon;resIcon=mxgraph.aws4.table;" parent="1" vertex="1">
          <mxGeometry x="650" y="533" width="60" height="60" as="geometry" />
        </mxCell>
        <mxCell id="eSSI8X7Q6GoKr2y-t-dQ-58" style="edgeStyle=none;rounded=0;orthogonalLoop=1;jettySize=auto;html=1;dashed=1;" parent="1" source="eSSI8X7Q6GoKr2y-t-dQ-30" target="eSSI8X7Q6GoKr2y-t-dQ-54" edge="1">
          <mxGeometry relative="1" as="geometry" />
        </mxCell>
        <mxCell id="eSSI8X7Q6GoKr2y-t-dQ-30" value="Kafka Self-Service View" style="sketch=0;outlineConnect=0;fontColor=#232F3E;gradientColor=none;strokeColor=#232F3E;fillColor=#ffffff;dashed=0;verticalLabelPosition=bottom;verticalAlign=top;align=center;html=1;fontSize=12;fontStyle=0;aspect=fixed;shape=mxgraph.aws4.resourceIcon;resIcon=mxgraph.aws4.table;" parent="1" vertex="1">
          <mxGeometry x="650" y="747" width="60" height="60" as="geometry" />
        </mxCell>
        <mxCell id="eSSI8X7Q6GoKr2y-t-dQ-31" style="edgeStyle=none;rounded=0;orthogonalLoop=1;jettySize=auto;html=1;entryX=0;entryY=0.5;entryDx=0;entryDy=0;entryPerimeter=0;" parent="1" source="eSSI8X7Q6GoKr2y-t-dQ-3" target="eSSI8X7Q6GoKr2y-t-dQ-14" edge="1">
          <mxGeometry relative="1" as="geometry" />
        </mxCell>
        <mxCell id="eSSI8X7Q6GoKr2y-t-dQ-32" style="edgeStyle=none;rounded=0;orthogonalLoop=1;jettySize=auto;html=1;entryX=0;entryY=0.5;entryDx=0;entryDy=0;entryPerimeter=0;" parent="1" source="eSSI8X7Q6GoKr2y-t-dQ-4" target="eSSI8X7Q6GoKr2y-t-dQ-14" edge="1">
          <mxGeometry relative="1" as="geometry" />
        </mxCell>
        <mxCell id="eSSI8X7Q6GoKr2y-t-dQ-33" style="edgeStyle=none;rounded=0;orthogonalLoop=1;jettySize=auto;html=1;entryX=0;entryY=0.5;entryDx=0;entryDy=0;entryPerimeter=0;" parent="1" source="eSSI8X7Q6GoKr2y-t-dQ-5" target="eSSI8X7Q6GoKr2y-t-dQ-14" edge="1">
          <mxGeometry relative="1" as="geometry" />
        </mxCell>
        <mxCell id="eSSI8X7Q6GoKr2y-t-dQ-34" style="edgeStyle=none;rounded=0;orthogonalLoop=1;jettySize=auto;html=1;entryX=0;entryY=0.5;entryDx=0;entryDy=0;entryPerimeter=0;" parent="1" source="eSSI8X7Q6GoKr2y-t-dQ-6" target="eSSI8X7Q6GoKr2y-t-dQ-14" edge="1">
          <mxGeometry relative="1" as="geometry" />
        </mxCell>
        <mxCell id="eSSI8X7Q6GoKr2y-t-dQ-35" style="edgeStyle=none;rounded=0;orthogonalLoop=1;jettySize=auto;html=1;entryX=0;entryY=0.5;entryDx=0;entryDy=0;entryPerimeter=0;" parent="1" source="eSSI8X7Q6GoKr2y-t-dQ-7" target="eSSI8X7Q6GoKr2y-t-dQ-14" edge="1">
          <mxGeometry relative="1" as="geometry" />
        </mxCell>
        <mxCell id="eSSI8X7Q6GoKr2y-t-dQ-48" style="edgeStyle=none;rounded=0;orthogonalLoop=1;jettySize=auto;html=1;entryX=0;entryY=0.5;entryDx=0;entryDy=0;dashed=1;startArrow=classic;startFill=1;endArrow=none;endFill=0;" parent="1" source="eSSI8X7Q6GoKr2y-t-dQ-39" target="eSSI8X7Q6GoKr2y-t-dQ-46" edge="1">
          <mxGeometry relative="1" as="geometry">
            <Array as="points">
              <mxPoint x="420" y="200" />
            </Array>
          </mxGeometry>
        </mxCell>
        <mxCell id="eSSI8X7Q6GoKr2y-t-dQ-39" value="Cluster Status" style="ellipse;whiteSpace=wrap;html=1;aspect=fixed;" parent="1" vertex="1">
          <mxGeometry x="382.5" y="30" width="80" height="80" as="geometry" />
        </mxCell>
        <mxCell id="eSSI8X7Q6GoKr2y-t-dQ-49" style="edgeStyle=none;rounded=0;orthogonalLoop=1;jettySize=auto;html=1;entryX=0.5;entryY=0;entryDx=0;entryDy=0;dashed=1;startArrow=classic;startFill=1;endArrow=none;endFill=0;" parent="1" source="eSSI8X7Q6GoKr2y-t-dQ-40" target="eSSI8X7Q6GoKr2y-t-dQ-46" edge="1">
          <mxGeometry relative="1" as="geometry" />
        </mxCell>
        <mxCell id="eSSI8X7Q6GoKr2y-t-dQ-40" value="Topic Management" style="ellipse;whiteSpace=wrap;html=1;aspect=fixed;" parent="1" vertex="1">
          <mxGeometry x="640" y="40" width="80" height="80" as="geometry" />
        </mxCell>
        <mxCell id="eSSI8X7Q6GoKr2y-t-dQ-50" style="edgeStyle=none;rounded=0;orthogonalLoop=1;jettySize=auto;html=1;entryX=1;entryY=0.5;entryDx=0;entryDy=0;dashed=1;startArrow=classic;startFill=1;endArrow=none;endFill=0;" parent="1" source="eSSI8X7Q6GoKr2y-t-dQ-41" target="eSSI8X7Q6GoKr2y-t-dQ-46" edge="1">
          <mxGeometry relative="1" as="geometry">
            <Array as="points">
              <mxPoint x="938" y="200" />
            </Array>
          </mxGeometry>
        </mxCell>
        <mxCell id="eSSI8X7Q6GoKr2y-t-dQ-41" value="Topic Analyzer" style="ellipse;whiteSpace=wrap;html=1;aspect=fixed;" parent="1" vertex="1">
          <mxGeometry x="897.5" y="30" width="80" height="80" as="geometry" />
        </mxCell>
        <mxCell id="eSSI8X7Q6GoKr2y-t-dQ-46" value="" style="ellipse;whiteSpace=wrap;html=1;aspect=fixed;" parent="1" vertex="1">
          <mxGeometry x="667.5" y="190" width="25" height="25" as="geometry" />
        </mxCell>
        <mxCell id="eSSI8X7Q6GoKr2y-t-dQ-52" value="" style="shape=image;html=1;verticalAlign=top;verticalLabelPosition=bottom;labelBackgroundColor=#ffffff;imageAspect=0;aspect=fixed;image=https://cdn3.iconfinder.com/data/icons/business-and-education-1/512/299_group_business_meeting_people_team-128.png" parent="1" vertex="1">
          <mxGeometry x="950" y="279" width="128" height="128" as="geometry" />
        </mxCell>
        <mxCell id="eSSI8X7Q6GoKr2y-t-dQ-53" value="" style="shape=image;html=1;verticalAlign=top;verticalLabelPosition=bottom;labelBackgroundColor=#ffffff;imageAspect=0;aspect=fixed;image=https://cdn0.iconfinder.com/data/icons/coronavirus-disease-metaphoricon/128/masked-people-group-face-128.png" parent="1" vertex="1">
          <mxGeometry x="950" y="494" width="128" height="128" as="geometry" />
        </mxCell>
        <mxCell id="eSSI8X7Q6GoKr2y-t-dQ-54" value="" style="shape=image;html=1;verticalAlign=top;verticalLabelPosition=bottom;labelBackgroundColor=#ffffff;imageAspect=0;aspect=fixed;image=https://cdn1.iconfinder.com/data/icons/ios-11-glyphs/30/user_group_man_man-128.png" parent="1" vertex="1">
          <mxGeometry x="950" y="713" width="128" height="128" as="geometry" />
        </mxCell>
        <mxCell id="eSSI8X7Q6GoKr2y-t-dQ-59" value="Service/Application Owners (e.g DACO)" style="text;html=1;align=center;verticalAlign=middle;resizable=0;points=[];autosize=1;strokeColor=none;fillColor=none;fontSize=13;fontStyle=1" parent="1" vertex="1">
          <mxGeometry x="1125" y="283" width="250" height="30" as="geometry" />
        </mxCell>
        <mxCell id="eSSI8X7Q6GoKr2y-t-dQ-60" value="Kafka Healthy/Overview (e.g SRE, Ops)" style="text;html=1;align=center;verticalAlign=middle;resizable=0;points=[];autosize=1;strokeColor=none;fillColor=none;fontSize=13;fontStyle=1" parent="1" vertex="1">
          <mxGeometry x="1115" y="467.5" width="250" height="30" as="geometry" />
        </mxCell>
        <mxCell id="eSSI8X7Q6GoKr2y-t-dQ-61" value="Kafka Admin" style="text;html=1;align=center;verticalAlign=middle;resizable=0;points=[];autosize=1;strokeColor=none;fillColor=none;fontSize=13;fontStyle=1" parent="1" vertex="1">
          <mxGeometry x="1115" y="705.64" width="100" height="30" as="geometry" />
        </mxCell>
        <mxCell id="eSSI8X7Q6GoKr2y-t-dQ-62" value="Kafka as Service Central Management Platform" style="text;html=1;align=center;verticalAlign=middle;resizable=0;points=[];autosize=1;strokeColor=none;fillColor=none;fontSize=13;fontStyle=1" parent="1" vertex="1">
          <mxGeometry x="247.5" y="275" width="300" height="30" as="geometry" />
        </mxCell>
        <mxCell id="N3kXeCxZIIlLhYJHcYFg-1" value="" style="endArrow=none;dashed=1;html=1;dashPattern=1 3;strokeWidth=2;rounded=0;" edge="1" parent="1">
          <mxGeometry width="50" height="50" relative="1" as="geometry">
            <mxPoint x="520" y="69.5" as="sourcePoint" />
            <mxPoint x="580" y="69.5" as="targetPoint" />
          </mxGeometry>
        </mxCell>
        <mxCell id="N3kXeCxZIIlLhYJHcYFg-3" value="" style="endArrow=none;dashed=1;html=1;dashPattern=1 3;strokeWidth=2;rounded=0;" edge="1" parent="1">
          <mxGeometry width="50" height="50" relative="1" as="geometry">
            <mxPoint x="780" y="69.5" as="sourcePoint" />
            <mxPoint x="840" y="69.5" as="targetPoint" />
          </mxGeometry>
        </mxCell>
      </root>
    </mxGraphModel>
  </diagram>
</mxfile>
